<?xml version="1.0" standalone="no"?><!DOCTYPE svg PUBLIC "-//W3C//DTD SVG 1.1//EN" "http://www.w3.org/Graphics/SVG/1.1/DTD/svg11.dtd"><svg t="1731293571401" class="icon" viewBox="0 0 1628 1024" version="1.1" xmlns="http://www.w3.org/2000/svg" p-id="32986" xmlns:xlink="http://www.w3.org/1999/xlink" width="317.96875" height="200"><path d="M1116.428567 512.004189m-372.360589 0a372.36059 372.36059 0 1 0 744.721179 0 372.36059 372.36059 0 1 0-744.721179 0Z" fill="#2B79FF" opacity=".3" p-id="32987"></path><path d="M518.0451 886.086947c-3.770151 5.957769-3.39779 6.42322 5.725044 6.655945 3.071975 0.09309 5.818134-0.372361 6.050859-1.023992 0.232725-0.698176-1.535987-3.490881-4.049421-6.004314l-4.514872-4.840688-3.21161 5.166503v0.046546z m-34.722625-310.967638c7.679937 2.792704 9.26247 2.420344 16.011505-4.840688 7.354122-7.726482 10.100281-8.983199 9.122834-4.002876-0.605086 3.3047 0.837811 7.214486 2.74616 7.214486 0.698176 0 2.327254-2.327254 3.770151-5.166503 1.396352-2.885795 2.885795-4.701052 3.258155-4.235601 0.465451 0.558541 7.074851 2.187618 14.894423 3.537425l14.242793 2.559979 8.890109 8.936654c6.795581 6.935216 10.333006 9.44865 14.847879 11.077728 15.77878 5.306138 16.756227 6.004315 20.154017 16.011505l2.047983 5.631954-4.887233 6.655946c-2.699614 3.723606-4.375237 6.935216-3.770151 7.400666 0.698176 0.325816 3.677061-0.930901 6.749036-2.885794 6.655946-4.049421 8.657384-3.444335 3.071975 1.023992-4.282147 3.583971-3.909786 4.747598 1.303262 4.747597a13.079166 13.079166 0 0 0 7.586847-3.490881 16.849317 16.849317 0 0 1 4.980323-3.444335c0.605086 0 3.583971 2.094528 6.79558 4.654507 5.585409 4.328692 12.47408 6.749036 19.548931 6.888671 3.583971 0 6.981761 1.954893 13.311891 7.819573 3.909786 3.770151 5.585409 6.190495 5.585409 8.378113 0 1.722168-3.351245 9.215925-7.261031 16.616591-6.749036 12.56717-7.354122 14.242793-8.378114 24.017258-2.047983 20.945283-6.795581 30.859384-15.825325 33.047003-5.678499 1.396352-21.131463 11.170818-22.993266 14.615153a37.70151 37.70151 0 0 0-1.908348 8.843564c-1.396352 11.310453-13.032621 31.37138-19.688566 34.117539-2.978885 1.163627-4.747598 1.163627-9.634831 0a21.643459 21.643459 0 0 0-6.283584-1.023992c-0.232725 0.232725 1.070537 2.792704 2.978884 5.492319 3.909786 5.771589 4.514872 9.309015 1.768713 12.008629a27.833954 27.833954 0 0 1-11.962084 4.142512 24.855069 24.855069 0 0 0-7.121396 5.073413c-3.258155 2.606524-7.447212 5.725044-9.63483 6.79558-3.444335 1.861803-3.677061 2.187618-2.466889 5.119958 1.535987 4.095966-0.605086 10.286461-6.190495 17.687128-4.282147 5.864679-4.375237 6.749036-0.605086 11.170818l2.978885 3.397791-9.495195 15.685689-9.588286 15.639145-5.725044-4.375237-5.678499-4.235601 0.605086-7.493757c0.325816-5.399229 1.070537-7.912663 2.699615-9.44865 2.141073-1.861803 2.047983-2.047983-3.071975-7.586847-5.818134-6.23704-6.655946-7.819572-3.071975-6.004315 1.535987 0.791266 2.327254 1.210172 2.932339 0.977447 0.605086-0.232725 0.930901-1.117082 1.675623-3.02543a23.970713 23.970713 0 0 0 1.303262-15.918415 67.816172 67.816172 0 0 1 1.768713-32.674642c1.582533-4.747598 3.723606-12.56717 4.747598-17.268222 2.047983-9.54174 5.492319-48.593057 5.492318-61.718768 0-8.191933-0.139635-8.517748-4.514872-12.75335a162.116492 162.116492 0 0 0-9.63483-8.285023c-6.981761-5.306138-11.170818-12.101719-15.639145-25.367066a220.018563 220.018563 0 0 0-7.261031-18.292214c-3.258155-7.447212-4.142512-12.194809-2.234164-13.358436 0.605086-0.325816 1.070537-3.723606 0.930901-7.261031-0.09309-5.957769 0.605086-7.912663 6.05086-18.059489 4.980323-9.122834 6.190495-12.427535 6.190495-16.802772a19.735111 19.735111 0 0 0-5.678499-15.452964c-2.746159-2.746159-2.885795-3.21161-0.837811-2.513434z m-64.883833-333.914359c-1.070537 2.420344-0.837811 3.351245 1.861803 6.469765 1.396352 1.489442 2.466889 3.258155 3.11852 5.166504 0 2.559979-2.606524 7.493757-4.049422 7.633392a114.733607 114.733607 0 0 1-7.819572 0.46545 300.07609 300.07609 0 0 0-15.080604 1.117082c-8.052298 0.837811-8.843564 0.698176-16.616591-2.885794l-4.747598-2.234164c-1.396352-0.698176-2.792704-1.396352-4.235602-2.001438-0.465451-0.232725-0.232725 0.791266 0.465451 2.327254 1.070537 2.280709 0.698176 3.537426-2.141073 8.005752l-3.3047 5.306139-5.119959-3.351246a26.297967 26.297967 0 0 0-11.868993-4.002876 351.880757 351.880757 0 0 1-8.517749-0.930901c-0.930901-0.09309-2.047983-1.861803-2.373799-3.677061-0.605086-3.258155-1.210172-3.583971-10.705367-6.097405-5.585409-1.396352-13.730797-2.792704-18.385304-3.11852a117.759037 117.759037 0 0 1-12.56717-1.256717c-3.444335-0.558541-6.05086 0.232725-15.313329 4.701053-8.657384 4.189057-11.263908 5.119958-11.962084 3.816696a5.166503 5.166503 0 0 1-1.070536-2.420344c0-0.465451-0.465451-0.791266-1.070537-0.791266-0.698176 0-0.837811 2.746159-0.465451 6.33013 0.791266 7.819572-0.744721 8.285023-4.980323 1.256717-2.606524-4.375237-4.049421-5.399229-9.309015-6.935216a698.688102 698.688102 0 0 0-59.065698-12.2879l-16.244231-2.653069-11.031182 5.306138c-6.14395 2.885795-14.428973 6.981761-18.61803 9.215925l-7.354121 4.002876 10.100281 6.004315c10.286461 6.05086 11.729359 8.285023 7.447211 10.798457-1.303262 0.930901-3.3047 0.837811-6.655945-0.232726-4.840688-1.582533-10.891547-0.651631-11.729359 1.861803-0.698176 2.047983 6.749036 8.378113 9.867556 8.378114a22.481271 22.481271 0 0 0 6.981761-1.582533c4.654507-1.861803 5.352683-1.489442 5.352683 2.885795 0 3.21161-5.725044 9.076289-8.797019 9.076289-0.837811 0-2.978885 1.489442-4.840687 3.444336l-3.351246 3.351245 3.211611 4.701052a19.08348 19.08348 0 0 0 6.42322 6.05086c1.768713 0.744721 4.747598 2.373799 6.749035 3.630516 2.466889 1.722168 5.445774 2.420344 10.239917 2.420344h6.70249l-2.327253 6.097404a21.224554 21.224554 0 0 0-1.908348 6.702491c0.930901 0.930901 9.960646-6.097405 13.637706-10.612277a82.850231 82.850231 0 0 0 6.749036-10.565732c2.373799-4.654507 3.816696-6.004315 5.957769-6.004314 3.909786 0 4.375237 1.023992 2.327254 4.840687-3.165065 6.097405-0.09309 6.33013 5.026868 0.325816l0.09309-0.09309c2.094528-2.420344 3.3047-3.816696 4.840688-4.328692 2.187618-0.698176 5.026868 0.465451 11.915539 3.3047l0.232725 0.09309c4.235602 1.722168 13.498071 4.607962 20.759103 6.469766 14.242793 3.537426 19.223115 6.190495 23.831078 12.66026 1.675623 2.327254 4.654507 4.840688 6.51631 5.492318 3.723606 1.535987 6.981761 6.33013 6.981761 10.053736 0 5.026868 10.472642 19.874746 20.666013 29.230307 11.496633 10.565732 12.56717 13.358436 5.725044 15.313329l-4.049422 1.023991 0.465451 18.52494c0.372361 17.407858 0.605086 18.99039 3.723606 25.367065 4.002876 8.517748 13.823887 21.410734 19.17657 25.41361 4.654507 3.351245 7.447212 8.191933 10.705367 17.826763 1.163627 3.490881 3.39779 8.890109 5.073413 12.10172 3.583971 7.167941 13.032621 20.154017 14.615154 20.154016 0.558541 0-2.653069-7.261032-7.261032-16.104595-8.191933-15.918415-10.333006-22.900176-6.42322-21.410734 0.930901 0.325816 1.861803 0.558541 2.885794 0.698176 0.791266 0 26.065241 38.07387 29.509577 44.543636 0.744721 1.396352 1.303262 3.770151 1.303262 5.492318 0 1.629078 1.303262 4.282147 2.885795 5.77159 4.980323 4.840688 23.924168 13.265346 35.234621 15.546054 11.636268 2.420344 13.870432 3.444335 26.809962 11.543178 6.376675 4.095966 9.588285 6.981761 11.263908 10.100281 2.839249 5.771589 13.265346 14.056612 17.454403 14.056613a11.310453 11.310453 0 0 0 5.585408-1.722168c0.977447-0.791266 1.535987-1.163627 1.442898-1.396352-0.046545-0.232725-0.837811-0.27927-2.420344-0.325816-9.26247-0.139635-13.404981-6.33013-12.334445-18.199124a22.807086 22.807086 0 0 0-0.232725-9.215924c-0.605086-0.791266-4.282147-1.954893-8.331568-2.513434a35.094986 35.094986 0 0 1-8.657384-1.861803c-1.535987-0.930901-0.930901-7.447212 1.768713-18.059489l1.675622-6.562855h-4.049421c-4.375237 0-9.960646 4.142512-9.960646 7.354122 0 3.258155-5.911224 6.42322-11.868993 6.42322-11.636268 0-15.77878-7.354122-15.639145-27.833954 0.139635-14.615153 1.070537-17.873308 7.121396-22.248546 3.444335-2.373799 10.705367-2.839249 19.921292-1.117081 4.375237 0.791266 5.119958 0.558541 5.818134-1.629078 1.535987-4.840688 11.729359-7.447212 17.547493-4.607962 5.119958 2.559979 7.959208 6.097405 10.938092 13.591161 3.770151 9.681375 4.840688 11.403543 6.376675 9.914101 0.744721-0.837811 0.372361-4.375237-1.163627-10.379551-3.909786-16.011505-3.21161-19.455841 6.655946-30.626659 7.586847-8.517748 8.750474-11.170818 9.72792-21.038373 0.558541-7.866117 0.930901-8.517748 2.792705-7.633392l0.232725 0.139635c1.070537 0.558541 1.675623 0.930901 2.280709 0.837811 0.930901-0.139635 1.675623-1.396352 3.723605-4.794142l0.093091-0.186181a21.503824 21.503824 0 0 1 7.726482-7.493757c3.071975-1.489442 4.840688-3.258155 5.306138-5.399228 1.908348-7.167941 6.655946-10.705367 20.433288-15.359874 8.378113-2.839249 10.798457-1.210172 5.213048 3.39779-5.213048 4.375237-3.677061 4.468327 3.444335 0.465451l1.442898-0.837812c1.675623-0.884356 2.653069-1.396352 2.699614-2.047983 0.139635-0.930901-1.582533-2.094528-5.818134-4.933778l-1.303262-0.930901a458.329341 458.329341 0 0 1-1.303263-0.837812c-5.678499-3.909786-6.42322-6.888671-2.327253-9.54174 1.396352-0.930901 2.234164-2.094528 1.722168-2.559979-1.163627-1.117082-8.983199 1.535987-14.335883 4.840688-2.606524 1.489442-4.887233 2.559979-5.213048 2.187618-0.372361-0.325816 0.605086-2.653069 2.234163-4.933777 4.282147-6.33013 12.56717-10.239916 25.879061-12.334445 6.14395-0.930901 13.963522-2.513434 17.454403-3.537425 5.306138-1.535987 6.14395-2.187618 6.842126-5.445774 1.210172-5.026868-1.629078-6.981761-9.122835-6.190495-6.749036 0.698176-7.214486-0.605086-2.001438-4.747597l3.677061-2.978885-3.444336-1.722168c-6.283585-3.11852-11.403543-8.843564-16.011505-18.431849a38.539321 38.539321 0 0 0-5.585409-9.44865c-0.465451 0-1.861803 1.163627-3.21161 2.420344-3.444335 3.816696-9.26247 5.864679-12.799895 4.514872a9.309015 9.309015 0 0 1-6.05086-10.705367c0.698176-3.816696 0.465451-4.375237-4.189056-7.586847-6.6094-4.747598-16.942407-6.935216-21.224554-4.654507-2.792704 1.535987-3.165065 2.559979-4.002876 11.403543-0.744721 7.959208-0.605086 11.077728 1.070536 16.476956 1.768713 5.771589 1.861803 7.447212 0.698176 11.543178-1.396352 4.980323-2.699614 10.007191-3.816696 15.080604a38.725501 38.725501 0 0 1-4.002876 11.962084c-4.654507 4.607962-14.940969-5.213048-14.940969-14.196248 0-5.864679-0.930901-6.749036-11.403543-10.239916-12.334445-4.002876-17.454403-6.888671-22.900176-13.03262a32.116101 32.116101 0 0 0-8.424658-6.749036c-5.445774-2.327254-5.445774-5.073413 0.232725-15.080604 6.655946-11.729359 11.496633-16.942407 17.780218-18.61803 5.119958-1.535987 8.098843-3.258155 8.098843-4.654507 0-0.465451-1.908348-1.722168-4.282147-2.792704-5.213048-2.466889-4.282147-4.189057 2.513434-4.189057 6.376675 0 7.679937 1.815258 7.679937 10.333006 0 6.981761 1.768713 8.191933 6.888671 4.607963 2.839249-2.094528 4.514872-2.420344 7.912663-1.861803 4.049421 0.837811 4.328692 0.698176 3.11852-1.489443a23.737988 23.737988 0 0 0-7.819573-5.306138c-5.585409-2.513434-11.403543-7.819572-9.960645-9.076289 0.232725-0.232725 4.375237-1.489442 9.122834-2.885795 4.654507-1.489442 8.564294-2.885795 8.564294-3.11852a38.353141 38.353141 0 0 0-1.815258-4.701052 22.29509 22.29509 0 0 1-1.768713-6.655946c0-3.351245-2.839249-5.585409-5.818134-4.654507-1.396352 0.372361-4.282147 3.816696-6.283585 7.633392-2.141073 3.677061-4.514872 6.795581-5.213048 6.795581s-2.839249-3.490881-4.654508-7.633393l-3.258155-7.447211-3.723606 3.444335c-4.282147 4.002876-5.445774 4.375237-5.445774 1.722168 0-1.023992-1.303262-3.351245-2.978884-5.306139a11.543178 11.543178 0 0 1-2.978885-6.050859c0-2.792704-4.375237-6.376675-7.679937-6.376675-0.930901 0-2.373799 1.256717-3.258155 2.792704l0.046545-0.046545z m39.284042 144.382819c4.468327 4.654507 8.517748 7.493757 12.56717 8.843564 3.3047 1.163627 6.05086 2.234164 6.283585 2.327254 0.605086 0.372361-5.119958 9.774465-5.95777 9.774465a34.117539 34.117539 0 0 1-5.771589-7.121396l-4.980323-7.121397-4.282146 10.798458-4.189057 10.845002-1.629078-3.909786c-2.141073-5.119958-1.070537-9.774465 3.304701-15.080604l3.444335-4.282147-9.35556-1.396352c-5.213048-0.791266-9.495195-1.861803-9.495195-2.327254 0-1.349807 9.72792-8.005753 11.636269-8.005753 0.930901 0 4.747598 2.978885 8.378113 6.655946h0.046545z m35.700072 18.292214c0 0.930901-20.526378 12.101719-23.365627 12.799895-0.837811 0.232725-1.535987 0-1.535988-0.558541 0-1.163627 21.224554-12.892985 23.458717-13.03262 0.744721 0 1.396352 0.372361 1.396352 0.837811l0.046546-0.046545zM628.170744 143.04139c4.840688 1.256717 5.678499 1.117082 8.517748-1.070537 3.444335-2.513434 8.564294-2.978885 18.059489-1.489442 5.213048 0.698176 5.213048 0.837811 2.699614 2.420343-4.375237 2.792704-3.444335 4.980323 1.768713 4.189057 2.373799-0.372361 10.705367-1.303262 18.292214-2.001438l13.963522-1.396352 2.978885 3.11852c2.373799 2.420344 3.816696 3.02543 5.957769 2.559979 1.675623-0.465451 2.978885-0.232725 2.978885 0.232725 0 0.558541-2.885795 1.396352-6.190495 1.722168a97.232659 97.232659 0 0 0-29.044126 8.285023c-15.546055 6.981761-9.774465 8.378113 12.66026 2.885794 15.825325-3.909786 17.826763-4.049421 23.970713-1.954893 3.583971 1.256717 6.981761 1.256717 18.385304 0.093091 25.739426-2.653069 26.716872-1.861803 6.05086 6.004314-12.93953 4.840688-14.103157 5.492319-12.194809 6.888671a7.912663 7.912663 0 0 0 3.909786 1.629078c0.930901 0-0.232725 2.187618-3.071975 5.399228-4.514872 5.306138-4.654507 5.631954-3.11852 9.54174l0.232725 0.605086c0.930901 2.606524 1.396352 3.816696 0.930902 4.561417-0.325816 0.698176-1.349807 1.023992-3.258155 1.629078l-0.372361 0.139635a12.148264 12.148264 0 0 0-4.189056 1.861803c0 2.373799 5.585409 10.100281 8.564293 11.822449 3.444335 2.094528 3.444335 2.327254 1.210172 3.444335a11.682814 11.682814 0 0 1-4.421782 1.256717c-1.535987 0-1.861803 0.698176-1.303262 2.885795 0.930901 3.490881 0.744721 3.490881-4.840688 0.605086-5.352683-2.792704-9.402105-3.02543-10.333006-0.605086-0.372361 1.070537-2.234164 1.722168-4.887233 1.722168-4.701052 0-4.701052 0.139635-2.327254 6.33013 1.629078 4.189057 2.606524 4.840688 9.821011 7.493756 5.213048 1.861803 8.052298 3.583971 8.331568 4.980323 0.325816 1.954893 0.09309 1.861803-4.189056-0.37236a32.907367 32.907367 0 0 0-5.213049-2.327254 24.622344 24.622344 0 0 0-8.191933 8.797019c0 0.791266 2.839249 1.582533 7.121397 2.047983 3.909786 0.465451 7.121396 1.256717 7.121396 1.722168 0 1.303262-6.42322 2.792704-23.598352 5.771589-15.68569 2.792704-19.828201 4.701052-23.598353 11.403543-2.280709 4.049421-3.909786 5.166503-9.774465 7.261032a45.334902 45.334902 0 0 0-11.962084 6.51631c-5.445774 4.654507-10.565732 13.870432-10.565732 19.362751 0 3.816696-3.909786 9.681375-6.376675 9.681375-3.351245 0-14.475518-5.631954-17.454403-8.750474-4.514872-4.701052-8.191933-10.938092-8.191933-13.963522 0-1.349807-1.303262-3.723606-2.978884-5.259593-2.606524-2.327254-2.792704-3.11852-1.861803-5.631954a10.798457 10.798457 0 0 1 2.327253-3.816696c1.675623-0.930901 1.675623-5.538864 0.139636-6.981761-0.837811-0.837811-0.698176-2.792704 0.605086-6.14395 2.466889-6.981761 2.234164-8.983199-1.396353-11.263908a57.436621 57.436621 0 0 1-3.11852-1.861803l-0.232725-0.139635-0.139635-0.09309a2.653069 2.653069 0 0 0-0.232726-0.09309c-0.232725-0.139635 0.465451-1.629078 1.535988-3.11852 2.141073-3.258155 1.442897-5.864679-2.327254-8.843564-1.582533-1.303262-2.141073-1.303262-2.885794-0.139635-0.698176 1.023992-2.466889-1.163627-5.445774-6.423221-6.283585-10.845002-13.777342-20.945283-16.011505-21.643459a38.865137 38.865137 0 0 0-10.239917 0.558541c-12.194809 1.722168-23.737988 1.396352-27.833954-0.558541-4.421782-2.327254-3.816696-3.351245 3.071975-5.213048 5.352683-1.489442 7.447212-2.978885 6.05086-4.375237a49.430868 49.430868 0 0 0-9.960646-1.861803c-4.980323-0.651631-8.890109-1.815258-8.657384-2.373799 0.232725-0.698176 5.445774-2.420344 11.729359-4.049421 10.100281-2.653069 11.496633-3.351245 13.963522-6.888671a18.943845 18.943845 0 0 0 2.792704-4.840688c0.09309-0.465451-2.047983-0.930901-4.654507-1.163627-2.606524-0.232725-4.747598-0.930901-4.654507-1.489442 0.139635-0.698176 4.282147-2.327254 9.309014-3.723606 8.285023-2.373799 12.101719-4.933778 13.498072-8.703929 0.372361-1.023992 1.210172-0.837811 2.839249 0.558541 3.21161 2.792704 4.980323 2.559979 6.283585-0.698176 0.837811-2.187618 2.373799-3.071975 7.121396-4.002876 7.261032-1.489442 11.868994-1.629078 14.149703-0.232726 1.163627 0.791266 2.327254 0.232725 3.909786-1.629077 2.001438-2.513434 2.93234-2.792704 13.404981-2.513434 12.93953 0.232725 14.568608-0.605086 12.66026-6.004315-0.605086-1.722168-0.930901-2.606524-0.605086-3.071975 0.325816-0.465451 1.349807-0.465451 3.490881-0.46545 2.234164 0 6.51631 0.558541 9.495195 1.256717z m-158.997972 3.21161a10.239916 10.239916 0 0 1 4.421782-4.514872 161.511406 161.511406 0 0 1 23.365627-1.023992c16.849317-0.09309 22.667451 0.372361 30.580114 2.187618 5.492319 1.256717 10.938092 2.327254 12.241354 2.327254 3.3047 0 9.821011 3.444335 8.657384 4.607962-0.605086 0.465451-6.42322 3.071975-12.939531 5.86468a143.358827 143.358827 0 0 0-12.93953 5.725044c-0.558541 0.605086 0.372361 1.629078 2.141073 2.327253l3.071975 1.396353-8.517749 5.026868c-7.726482 4.514872-9.26247 4.980323-14.335882 4.654507-4.747598-0.465451-6.51631 0.09309-10.938093 2.83925-6.190495 4.049421-6.655946 5.213048-2.001438 6.237039l2.653069 0.558541 1.722168 0.372361c2.839249 0.651631-9.35556 6.655946-15.918415 7.912662-4.002876 0.698176-7.214486 1.629078-7.214486 2.094529a15.825325 15.825325 0 0 0 4.747597 2.792704c2.606524 1.117082 4.747598 2.513434 4.747598 3.071975 0 1.163627-15.546055 1.256717-25.972152 0.232725-5.725044-0.558541-7.261032-1.163627-6.79558-2.420343 0.372361-0.930901 0.139635-2.792704-0.558541-4.049422-1.675623-3.071975-0.372361-4.002876 2.234163-1.722168 2.373799 2.094528 8.564294 2.653069 8.564294 0.837812 0-1.535987-4.189057-5.119958-8.936654-7.633392-3.909786-1.954893-4.002876-1.954893-9.35556 0.698176-4.282147 2.327254-5.911224 2.559979-8.657384 1.629077-4.514872-1.489442-4.747598-4.282147-0.698176-6.23704 1.210172-0.558541 2.001438-0.930901 2.001438-1.256717 0-0.651631-2.141073-1.349807-7.912662-3.258155L417.461195 174.552405l6.655946-5.026868 6.6094-5.119959 6.283585 3.02543a34.76917 34.76917 0 0 1 10.239916 7.819573c7.121396 8.517748 8.983199 10.146826 13.265346 10.845002 4.282147 0.791266 10.333006-1.163627 11.170818-3.444336 0.09309-0.698176-3.444335-2.653069-7.959207-4.514872-11.031182-4.375237-11.031182-6.42322 0.37236-6.42322 4.607962-0.139635 10.519187-0.837811 13.032621-1.629078 9.029744-3.258155 16.383866-9.914101 10.705367-9.9141-1.070537 0-5.957769 1.396352-10.938093 3.02543-8.424658 2.839249-9.35556 2.839249-15.546054 1.489442a41.750931 41.750931 0 0 0-10.426097-1.163627c-2.746159 0.232725-5.119958-0.558541-7.959207-2.792704-2.280709-1.582533-4.189057-3.3047-4.189057-3.863241 0-0.465451 6.42322-2.327254 14.289338-4.049422 13.172256-2.885795 14.335883-3.351245 16.104595-6.562855z m-88.482185 33.279727c0 0.465451 4.514872 3.071975 10.053736 5.725045 7.447212 3.583971 9.867556 4.375237 9.029744 2.885794-1.675623-3.258155-5.119958-5.864679-9.960646-7.819572-4.654507-1.861803-9.122834-2.327254-9.122834-0.791267z m-65.302738 24.66889c0-0.465451 3.909786-2.559979 8.657383-4.514873 9.26247-4.049421 10.333006-4.375237 10.333007-2.792704 0 0.605086-1.675623 1.629078-3.723606 2.559979a31.697195 31.697195 0 0 0-7.074851 4.142512c-2.280709 1.954893-4.189057 2.513434-5.818135 2.047983-1.303262-0.325816-2.373799-1.023992-2.373798-1.489443v0.046546z m78.335359-1.070537c0 2.047983 8.378113 8.610839 10.426096 8.052298 4.049421-1.396352-0.698176-7.819572-6.51631-8.9832-2.978885-0.558541-3.909786-0.372361-3.909786 0.930902z m36.956788 5.538864a21.596914 21.596914 0 0 0-7.447212-5.445774l-4.049421-1.396352 3.770151-0.09309a15.825325 15.825325 0 0 1 13.032621 5.399228l2.792704 3.11852 20.154017 0.372361c18.478394 0.325816 23.272537 1.117082 18.245669 2.978884-2.234164 0.791266-17.547493 0.698176-32.116101-0.232725-10.705367-0.791266-11.077728-0.930901-14.382428-4.701052z m-66.23364-2.466889c-1.629078 4.235602-3.770151 4.375237-16.24423 0.558541a45.288357 45.288357 0 0 0-9.960646-2.420344c-0.232725 0.372361-0.232725 1.861803 0.232725 3.444335 0.605086 2.559979 1.303262 2.885795 5.585409 2.653069 3.816696-0.232725 5.213048 0.232725 6.283585 2.094529l1.535987 2.746159c0.232725 0.232725 5.352683-0.698176 11.496634-2.187618l11.077727-2.792705-4.189057-3.723606a71.586323 71.586323 0 0 0-4.235601-3.863241 15.639145 15.639145 0 0 0-1.582533 3.490881z m-51.665032 30.626658c-6.05086-1.535987-6.283585-8.098843-0.605086-16.011505 1.303262-1.722168 3.071975-3.11852 4.049422-3.11852 4.607962 0 18.385304 2.792704 19.316205 3.909786 1.675623 1.954893-19.455841 16.011505-22.807086 15.173694l0.046545 0.046545z m110.963456-16.011505c-1.629078 0.558541-2.141073 9.076289-0.558541 10.007191 0.558541 0.325816 3.677061-1.954893 6.749036-5.073413l5.818134-5.771589-5.213048 0.139635a25.41361 25.41361 0 0 0-6.795581 0.698176z m-25.13434 8.052298a33.512453 33.512453 0 0 1 3.816696-5.166504c1.396352-1.396352 3.258155-2.327254 5.213049-2.559979 2.141073 0 2.699614 0.605086 2.699614 2.885795 0 1.722168 0.837811 4.468327 1.815258 6.33013 1.629078 3.11852 1.629078 3.444335-0.465451 4.607962-3.444335 1.722168-6.190495 1.396352-10.565732-1.163627-3.444335-2.047983-3.723606-2.513434-2.513434-4.933777z m-24.203438-2.187619c-1.303262 2.047983-2.792704 4.049421-4.282147 5.95777l-2.234163 2.792704-3.444336-3.258155c-2.978885-2.978885-3.909786-3.21161-9.262469-2.606524a121.948093 121.948093 0 0 0-8.424659 1.396352c-2.001438 0.558541-2.746159 0.09309-3.3047-2.327254l-0.837811-2.978884-4.654508 2.513433c-5.306138 2.885795-6.6094 5.538864-4.747597 9.07629 0.930901 1.722168 2.513434 2.327254 6.33013 2.327254 6.6094 0 13.870432 2.047983 13.870432 3.909786 0 1.023992-2.373799 1.861803-7.121396 2.327253-7.912663 0.930901-8.191933 1.815258-1.210172 5.259594 5.957769 3.02543 12.008629 2.885795 20.200562-0.09309a33.512453 33.512453 0 0 1 20.945283-0.465451c1.954893 0.558541 2.792704 0.232725 3.351245-1.861803 0.744721-2.187618 0.139635-3.351245-3.3047-6.190495a21.969275 21.969275 0 0 1-7.912663-14.894423c0-4.095966-1.722168-4.468327-3.956331-0.930902v0.046545z m71.912139 17.221677c-6.190495-2.93234-6.283585-12.520625-0.09309-17.594037 1.861803-1.582533 4.142512-2.839249 4.980323-2.83925 2.094528 0 4.980323 3.444335 5.911224 6.888671 0.372361 1.629078 0.372361 2.187618 0 1.396352-1.163627-2.420344-2.839249-1.489442-2.839249 1.582533 0 3.816696 2.001438 7.400667 4.189056 7.400666 1.489442 0 1.954893-1.303262 3.630516-10.705367 0.605086-3.258155 1.535987-4.747598 3.723606-5.585408 4.840688-1.675623 5.911224-1.210172 5.911224 2.699614 0 6.51631 9.215925 10.333006 15.034059 6.050859 3.723606-2.746159 8.564294-2.047983 13.032621 1.768713 2.327254 1.954893 9.309015 5.771589 15.825325 8.378114l11.636268 4.980322-0.37236 4.468327-0.372361 4.654508 12.008629 5.399228c6.51631 2.839249 11.868994 5.725044 11.868994 6.33013a19.874746 19.874746 0 0 1-3.351246 4.933778l-3.444335 3.909786-5.306138-4.235601c-6.05086-4.840688-8.703929-5.306138-10.472642-2.001438-1.396352 2.653069-0.605086 4.654507 5.445774 12.334444a21.92273 21.92273 0 0 1 4.049421 6.702491c0 2.373799-3.770151 9.774465-5.119958 9.774465-0.558541 0-5.585409-2.653069-10.891547-5.771589-12.93953-7.586847-16.476956-8.983199-25.972151-9.914101-10.938092-1.023992-10.472642-2.839249 0.930901-4.468327 4.887233-0.791266 5.725044-1.396352 7.261032-4.840687 1.629078-3.909786 1.768713-3.909786 7.679937-3.11852 5.119958 0.698176 5.957769 0.465451 5.957769-1.117082 0-1.163627-1.535987-2.420344-3.583971-3.11852-1.861803-0.698176-3.770151-2.327254-4.235601-3.723606a23.784533 23.784533 0 0 0-11.403543-12.38099c-6.655946-3.351245-18.152579-5.445774-34.76917-6.237039a91.786885 91.786885 0 0 1-16.849317-1.954894V243.904564z m-36.118977 12.939531c-1.861803 0-5.911224-4.654507-5.119958-5.864679 0.744721-1.163627 9.774465-0.372361 11.170817 0.930901 0.744721 0.651631-4.468327 4.933778-6.050859 4.933778z m308.873109 17.826763c-5.119958 2.187618-10.938092 6.23704-10.938092 7.633392 0 1.954893 7.726482 5.585409 11.868993 5.585409 4.654507 0 15.173694-4.328692 17.687128-7.214486 1.303262-1.629078 1.303262-2.420344-0.37236-4.840688-1.629078-2.513434-2.792704-2.885795-8.191933-2.885795a34.908805 34.908805 0 0 0-10.053736 1.722168z m36.677518 85.177485c0.930901-3.165065 2.234164-6.23704 3.770151-9.169379 4.189057-8.517748 6.05086-10.007191 8.936654-7.261032 2.141073 2.094528 1.768713 8.517748-0.605086 10.798457-2.280709 2.094528-11.263908 6.33013-12.101719 5.678499v-0.046545z m-189.34536 14.522063c-2.234164 1.954893-4.189057 4.514872-4.189057 5.771589 0 3.258155 4.189057 4.980323 8.564294 3.444336 5.119958-1.722168 5.492319-1.582533 5.957769 1.256717 0.232725 2.001438 1.070537 2.559979 2.699615 2.327253 3.444335-0.558541 3.909786-1.489442 2.746159-5.864679-0.837811-2.978885-2.141073-4.189057-5.818134-5.631954-2.978885-1.163627-4.514872-2.327254-4.189057-3.351245 1.117082-2.559979-1.256717-1.722168-5.771589 2.047983zM469.824403 514.796893c-5.585409 0-8.052298-1.023992-6.42322-2.746159a28.904491 28.904491 0 0 1 7.959208-0.698176c7.586847 0 17.919853 3.909786 24.436163 9.122834 2.839249 2.420344 2.978885 2.513434 0.698176 4.142512-3.39779 2.513434-4.468327 2.187618-10.286461-2.653069-7.121396-6.097405-9.495195-7.167941-16.383866-7.167942z m38.818592 13.963523c-1.163627 0.558541-2.094528 1.954893-2.094529 2.885794 0 1.489442 1.163627 1.582533 6.842126 0.930902a37.096424 37.096424 0 0 0 7.261032-1.163627 34.536445 34.536445 0 0 0-9.26247-3.909786 8.703929 8.703929 0 0 0-2.746159 1.256717z m963.762296 291.930702c-3.816696 3.956331-7.447212 8.145388-10.798457 12.47408l-8.285023 10.333006 3.677061 1.489442c6.749036 2.792704 8.285023 1.768713 14.335882-9.54174 6.51631-12.334445 7.912663-16.663136 5.352684-16.663136-0.930901 0-2.885795 0.930901-4.282147 1.908348z m-98.489376 6.14395c-1.535987 0-7.214486-8.191933-6.51631-9.309015 0.465451-0.698176 2.280709-0.930901 4.282147-0.605086 2.001438 0.325816 4.654507 0.698176 5.818134 0.698176 1.303262 0 2.234164 0.558541 2.234163 1.163627 0 1.396352-4.840688 8.052298-5.818134 8.052298z m109.799829-28.671766c-0.232725 0.930901-1.070537 3.351245-1.768713 5.399229-1.117082 3.444335-0.930901 4.375237 1.861803 7.912662l3.071975 3.956332 3.956331-6.097405c4.840688-7.493757 4.840688-8.378113 0.791267-9.914101a58.646793 58.646793 0 0 1-5.306139-1.954893c-1.303262-0.465451-2.280709-0.232725-2.606524 0.698176z m-166.352093-125.625154c-3.909786 1.489442-7.214486 6.33013-8.750474 12.799896-1.070537 4.142512-1.908348 5.631954-3.258155 5.166503a155.041641 155.041641 0 0 0-8.145388-2.513434c-7.447212-2.094528-8.797019-1.629078-12.47408 5.399228-1.163627 2.420344-3.21161 4.607962-4.514872 5.073413-1.303262 0.325816-2.792704 2.187618-3.444336 3.909787-1.768713 4.840688-5.306138 7.586847-19.548931 14.615153-14.708243 7.261032-16.290776 9.215925-13.404981 16.011505 2.327254 5.538864 2.327254 8.285023 0 9.54174-1.675623 0.930901-1.675623 1.489442 0.465451 5.631954 3.071975 5.911224 5.818134 16.290776 6.888671 25.925606 0.930901 9.076289 3.21161 11.962084 8.285023 10.845002a203.401972 203.401972 0 0 0 16.383866-6.70249c17.454403-7.726482 24.901614-10.146826 31.324834-10.146826a26.530692 26.530692 0 0 1 18.99039 8.750474c1.768713 2.187618 3.770151 3.909786 4.375237 3.909786 0.698176 0 2.373799-1.861803 3.909787-4.142512 3.258155-4.840688 4.980323-4.235602 4.980323 1.861803 0 2.885795 0.605086 4.607962 1.768712 5.073413 1.070537 0.325816 3.490881 3.909786 5.492319 8.052298 4.980323 10.472642 6.749036 11.729359 13.498071 9.914101 4.654507-1.303262 5.725044-1.163627 8.331569 0.46545 2.978885 1.861803 3.3047 1.861803 9.029744-1.163626a32.953912 32.953912 0 0 0 6.749036-4.375237c1.303262-1.629078 8.890109-26.949598 12.101719-39.842584 3.537426-14.522063 3.21161-18.99039-1.396352-23.505262a31.83683 31.83683 0 0 0-5.119959-4.235601 117.759037 117.759037 0 0 1-10.705367-13.963523 89.831992 89.831992 0 0 1-14.335882-28.159769l-4.980323-14.754789-1.768713 4.049422c-0.930901 2.187618-2.792704 7.354122-3.816696 11.496633a40.866575 40.866575 0 0 1-6.42322 14.847879c-2.141073 3.11852-18.012944-9.914101-18.245669-15.080604 0-1.396352 0.325816-5.073413 0.837811-7.912663 0.930901-5.306138 0.791266-5.445774-2.978884-6.70249-4.421782-1.489442-6.655946-1.489442-10.100281-0.139636zM1198.720258 199.91947a10.891547 10.891547 0 0 1 3.444335-5.771589c3.816696-2.513434 7.214486-2.327254 6.42322 0.46545-1.349807 5.166503 4.142512 6.795581 23.598353 6.981761 6.283585 0 9.35556 2.234164 8.378113 6.05086-0.558541 2.141073-3.630516 4.189057-13.870432 9.402105-7.074851 3.583971-13.032621 7.028306-13.032621 7.586847 0 2.559979 10.705367 3.11852 15.452965 0.837811 1.861803-0.930901 2.93234-2.420344 2.792704-4.049421-0.09309-2.885795 0.465451-2.978885 4.794143-1.396352 4.002876 1.535987 3.909786-0.09309-0.139635-2.513434l-3.304701-1.954893 3.21161-0.093091c2.234164 0 3.677061 0.791266 4.701053 3.071975a10.565732 10.565732 0 0 0 3.351245 3.909786c0.930901 0.465451 8.517748 1.396352 16.756227 2.094529 12.799895 1.163627 16.104596 1.023992 23.737987-0.558541 8.145388-1.722168 9.076289-1.722168 13.498072 0.09309l4.747597 1.861803-3.816696 1.954893-3.909786 1.954893 5.678499 4.701053c9.495195 7.912663 11.543178 8.843564 14.708243 7.167941 1.582533-0.837811 8.331568-1.768713 15.452965-2.094528l12.706805-0.558541 4.607962-4.375237c4.514872-4.282147 4.840688-4.375237 12.241355-4.049422 7.074851 0.372361 7.586847 0.558541 7.307576 2.885795-0.325816 3.11852 2.280709 3.444335 6.795581 0.930901 4.840688-2.792704 9.029744-2.187618 11.868994 1.722168 3.21161 4.375237 8.517748 5.725044 22.900176 5.725044 9.960646 0 11.868994 0.372361 13.870432 2.327254 1.303262 1.256717 2.327254 2.885795 2.327254 3.444335 0 1.954893 5.399229 3.351245 16.290775 4.049422 5.678499 0.325816 13.498071 1.489442 17.314768 2.513434 7.726482 2.094528 9.63483 1.256717 8.797019-4.002877-0.232725-1.396352-0.139635-2.559979 0.37236-2.559979 2.234164 0 26.204877 3.816696 30.812839 4.840688 8.191933 1.861803 15.68569 6.05086 21.503824 12.101719 2.93234 3.11852 5.818134 6.33013 6.14395 7.261032 0.605086 1.117082 1.070537 1.256717 1.396352 0.46545 2.653069-5.306138 3.490881-5.585409 9.54174-2.885794l5.818135 2.513434-6.05086 5.864679-6.190495 6.004315-6.655945-4.375237c-9.495195-6.097405-15.77878-6.702491-25.972152-2.327254-4.375237 1.861803-7.819572 3.723606-7.819572 4.282147 0 0.558541 2.466889 3.816696 5.445774 7.121396 2.978885 3.490881 5.119958 6.795581 4.654507 7.493757-0.372361 0.558541-3.258155 1.163627-6.33013 1.163627-6.05086 0-12.892985 2.653069-21.92273 8.285023-5.585409 3.444335-6.05086 3.537426-11.263908 2.187618-6.283585-1.489442-9.495195-0.837811-18.99039 3.816696-7.261032 3.537426-8.797019 6.190495-7.726482 14.242793 0.698176 6.469765-1.163627 11.543178-6.888671 17.640583a104.260965 104.260965 0 0 0-8.285023 11.031182c-2.746159 4.049421-5.119958 7.261032-5.352683 7.261032-1.629078 0-4.375237-9.774465-4.375237-16.104596-0.139635-10.612277 2.606524-14.894424 17.314767-27.740864 10.100281-8.843564 18.618029-18.664575 18.61803-21.224553 0-0.325816-1.070537-0.558541-2.327254-0.558541-1.349807 0-3.583971 1.629078-5.026868 3.583971-2.466889 3.21161-9.029744 7.912663-10.891547 7.912662-0.465451 0-0.232725-1.023992 0.46545-2.187618 2.001438-3.770151 1.396352-4.701052-3.351245-4.701053-5.119958 0-11.170818 3.444335-19.455841 11.263908-5.585409 5.213048-5.585409 5.213048-10.658822 3.956331-6.981761-1.768713-32.767732-1.163627-36.537882 0.791267-8.378113 5.259593-16.151141 11.496633-23.132902 18.524939l-7.121396 6.981761 4.189056 3.490881c3.863241 3.258155 6.14395 3.909786 10.984638 3.351245 3.723606-0.372361 6.749036 3.351245 6.749035 8.052298 0 12.892985-3.909786 22.807086-15.732235 39.377132-7.400667 10.472642-9.495195 11.962084-14.754788 10.705367-2.606524-0.558541-4.002876 0.232725-9.44865 6.004314a152.574752 152.574752 0 0 0-9.402105 10.333007l-2.978884 3.723606 2.978884 7.354121c3.723606 8.843564 3.909786 13.032621 0.837812 14.615154-3.909786 1.954893-4.514872 1.396352-6.516311-6.469766-3.351245-12.66026-6.283585-16.570046-12.706805-16.570046a9.821011 9.821011 0 0 1-5.445773-2.513434l-2.74616-2.559979-6.888671 4.654507c-10.426097 6.981761-9.588285 13.079166 1.768713 13.079166 2.885795 0 5.119958 0.372361 5.119958 0.698176 0 0.465451-1.535987 2.513434-3.537425 4.701053-4.282147 4.747598-4.421782 6.14395-0.744722 13.823887 1.675623 3.258155 2.513434 6.097405 1.908348 6.33013-0.605086 0.232725-0.465451 4.189057 0.139636 9.122834l1.163626 8.610839-6.143949 10.007191c-6.981761 11.403543-10.472642 14.754788-18.52494 17.640582-3.071975 1.023992-9.029744 3.258155-13.172255 4.840688a29.416487 29.416487 0 0 1-10.565732 2.187619c-3.770151-0.698176-12.194809 6.190495-12.19481 10.00719 0 1.489442 2.327254 7.354122 5.213049 13.125711 7.354122 14.428973 8.517748 18.757665 6.655945 23.132902-1.303262 3.11852-10.938092 11.636268-13.172256 11.636268a25.5067 25.5067 0 0 1-4.747597-7.028306 29.276851 29.276851 0 0 0-6.655946-8.750474c-3.583971-2.327254-8.564294-0.698176-11.729358 4.049422l-2.513434 3.537425-2.606524-12.892985-0.791267-3.956331c-1.722168-8.703929-2.327254-11.729359-3.723605-12.10172-0.698176-0.232725-1.675623 0.325816-3.165066 1.210172-2.280709 1.396352-4.654507 2.606524-7.028306 3.723606a20.340197 20.340197 0 0 1-0.605086-5.678499c-0.09309-6.23704-3.071975-12.75335-8.890109-20.247107l-2.885794-3.677061a31.27829 31.27829 0 0 0-0.930902-1.163626c0-0.139635-3.3047 0.558541-7.121396 1.489442-6.6094 1.629078-8.052298 2.653069-21.690004 15.77878-8.424658 8.145388-14.940969 15.406419-15.639145 17.500948-0.605086 1.861803-1.675623 7.447212-2.280709 12.427534a51.525397 51.525397 0 0 1-4.189056 14.428973l-2.792705 5.352684-6.050859-12.10172c-7.447212-15.173694-12.008629-30.114663-12.846441-41.983656-0.698176-12.56717-0.698176-12.56717-5.585409-9.774466l-0.09309 0.093091-4.189056 2.420343V513.865992c0-6.888671-14.894424-14.428973-33.047003-16.570046a48.220696 48.220696 0 0 1-15.546054-3.909786 42.356017 42.356017 0 0 0-11.263908-3.490881c-5.352683-0.558541-6.655946-1.396352-13.311891-8.145388-7.726482-7.726482-11.170818-8.843564-13.777342-4.840688-0.930901 1.489442 0.27927 4.701052 5.259593 14.289338 3.537426 6.749036 7.586847 13.125711 8.983199 14.010067 2.280709 1.535987 3.11852 1.396352 8.331569-1.256717l5.818134-2.792704 7.447212 6.6094c8.564294 7.354122 8.657384 8.052298 2.280708 17.128587-4.980323 7.028306-14.242793 13.265346-34.536444 23.272537-20.433287 10.007191-20.759103 10.007191-22.900177-1.396352a38.818591 38.818591 0 0 0-8.424658-18.99039 40.680394 40.680394 0 0 1-4.654507-8.610839 89.738902 89.738902 0 0 0-5.585409-11.868993 81.686604 81.686604 0 0 1-5.306139-11.496634c-2.746159-9.215925-6.981761-13.591162-15.313329-16.011505-4.375237-1.396352-3.444335 3.537426 3.21161 15.87187 3.444335 6.23704 6.981761 15.080604 8.424659 20.386742 2.978885 11.496633 5.911224 17.361312 17.082042 33.838269 13.777342 20.247107 14.475518 20.619468 30.254298 17.268222 4.282147-0.930901 8.285023-1.582533 9.122834-1.722167 2.280709 0-1.303262 10.239916-7.912663 23.737987-4.654507 9.309015-7.866117 13.777342-15.359874 21.64346-11.822449 12.287899-19.781656 22.434726-22.01582 27.601228-2.513434 5.771589-2.280709 12.56717 1.163627 24.994705 3.583971 13.358436 3.816696 23.272537 0.698176 28.299405a42.635288 42.635288 0 0 1-8.750474 8.285023c-9.402105 6.702491-11.868994 10.146826-11.031182 15.080604l0.418906 2.513434c1.117082 6.655946 1.535987 9.309015 0.698176 11.403543-0.511996 1.349807-1.582533 2.466889-3.304701 4.328692l-0.930901 1.023991a22.946721 22.946721 0 0 0-6.609401 12.101719 43.333464 43.333464 0 0 1-12.101719 22.900177c-6.51631 6.33013-14.149702 9.309015-28.71831 11.356998-12.334445 1.861803-14.010067 1.070537-14.010067-6.05086 0-3.02543-1.768713-8.424658-5.352684-15.918415a141.031573 141.031573 0 0 1-11.868994-37.189514 53.061384 53.061384 0 0 0-3.909786-13.218801c-4.002876-8.517748-3.909786-16.383866 0.372361-28.34595 5.119958-14.522063 4.282147-18.8973-7.819573-40.308034l-5.213048-9.169379-0.372361-14.987514c-0.465451-17.500948-1.303262-18.99039-9.262469-18.99039-4.189057 0-5.911224-0.698176-8.797019-3.444336-4.375237-4.282147-7.586847-4.375237-24.529254-1.163626-20.433287 3.816696-27.554684 4.142512-33.000457 1.396352a33.605543 33.605543 0 0 1-8.378114-6.23704C744.067978 581.91489 728.056472 552.870764 728.056472 549.333338l1.303262-19.921291c1.396352-20.619468 2.978885-24.296528 16.290776-38.818592 9.588285-10.565732 12.427535-15.173694 12.427535-20.479832 0-3.583971 4.375237-10.007191 10.426096-15.546055 2.606524-2.513434 5.352683-3.583971 10.565732-4.235602 3.816696-0.465451 12.008629-2.234164 18.292214-3.816696 13.637707-3.583971 32.116101-5.771589 35.932797-4.282146 3.537426 1.303262 4.282147 3.351245 3.444335 10.146826-0.605086 5.306138-0.372361 5.771589 2.74616 7.912662 6.51631 4.421782 26.903053 14.196247 29.509576 14.196248 2.746159 0 4.887233-1.861803 7.121397-6.097405 2.513434-4.840688 4.747598-5.073413 14.475518-1.629078 6.05086 2.187618 13.777342 3.723606 22.57436 4.654508 14.708243 1.349807 15.87187 0.977447 18.61803-5.445774 2.466889-6.004315 6.749036-22.574361 6.050859-23.598352-0.372361-0.558541-6.655946-1.023992-14.010067-0.930902-16.290776 0.232725-18.152579-0.325816-19.921291-5.864679-2.513434-8.285023-1.396352-10.379551 7.819572-14.428973 7.354122-3.3047 9.495195-3.630516 18.99039-3.630516 5.911224 0 13.870432 0.465451 17.780218 1.023992 6.42322 0.791266 7.354122 0.698176 9.402105-1.489442 3.071975-3.258155 1.396352-6.795581-6.51631-13.730797-6.190495-5.259593-6.33013-5.585409-4.049422-12.427535 1.163627-3.677061-2.047983-4.235602-9.495195-1.489442-6.190495 2.187618-6.42322 2.420344-5.119958 5.166503 2.839249 6.097405-2.327254 4.282147-5.678499-2.047983-2.513434-4.747598-6.190495-4.189057-12.008629 1.582532-6.14395 6.33013-8.657384 11.170818-8.657383 17.082042 0 6.981761-1.675623 9.16938-6.981761 9.16938-5.818134 0-11.636268 1.954893-12.47408 4.282147-0.372361 0.930901 0.139635 3.583971 1.303262 5.771589 2.280709 4.561417 1.303262 6.981761-3.071975 8.517748l-2.606524 1.023992 2.327254-2.978885c2.885795-3.583971 1.722168-6.23704-2.792705-6.23704-3.258155 0-4.514872-1.489442-6.42322-6.888671-1.861803-5.678499-8.657384-13.498071-19.455841-22.48127-7.586847-6.33013-9.495195-7.447212-10.938092-6.33013a5.492319 5.492319 0 0 0-1.768713 3.723606c0 2.513434 16.011505 22.807086 18.059489 22.807086 0.930901 0 0.232725 4.189057-0.837812 5.492319-4.794143-3.351245-9.309015-6.981761-13.637706-10.938093a174.916387 174.916387 0 0 0-15.359875-12.194809c-3.630516-1.722168-18.943845 3.444335-23.225991 7.819572-4.654507 4.933778-12.334445 14.615153-16.011506 20.479833-3.444335 5.306138-8.285023 7.447212-16.849316 7.586847-11.031182 0.232725-17.547493-5.585409-15.77878-13.916977 0.465451-2.047983 0.930901-6.795581 1.070536-10.472642 0.139635-8.191933 1.396352-9.076289 10.239916-7.912662 16.337321 2.047983 20.154017 0.558541 20.154017-7.959208a18.757665 18.757665 0 0 0-6.190494-14.522063l-3.537426-3.583971 2.699614-1.722167c18.524939-11.263908 24.668889-15.546055 30.021573-20.945284 4.747598-4.607962 7.726482-6.51631 11.636268-7.447211l5.445774-1.396353 0.744721-7.959207c0.465451-4.375237 1.396352-7.912663 2.001438-7.912663 0.837811 0 0.930901 1.675623 0.465451 4.468327-0.930901 5.864679 2.373799 9.63483 8.052298 9.215925a18.199124 18.199124 0 0 1 7.121396 1.256717c2.978885 1.396352 3.909786 1.256717 8.657384-0.930902a27.740864 27.740864 0 0 1 9.960645-2.513434c8.843564 0 12.47408-3.351245 13.311892-12.101719 0.372361-3.351245 0.605086-3.444335 5.213048-3.11852 5.957769 0.465451 7.261032-1.489442 4.980323-7.354121-0.930901-2.653069-1.070537-4.282147-0.232726-5.073413a43.473099 43.473099 0 0 1 12.241355-2.513434c11.729359-1.396352 12.799895-2.559979 5.911224-5.771589-3.677061-1.861803-5.213048-1.954893-13.870432-0.698177-11.729359 1.722168-12.56717 1.163627-12.56717-7.586847 0-5.538864 0.465451-6.562855 4.840688-11.543178 4.282147-4.654507 7.447212-11.356998 6.050859-12.75335a27.740864 27.740864 0 0 0-5.445773-1.256717c-4.840688-0.698176-4.980323-0.698176-6.888671 3.677061a51.525397 51.525397 0 0 1-11.403543 13.311891c-2.653069 2.373799-4.189057 3.723606-4.840688 5.445773-0.930901 2.280709-0.465451 5.073413 0.558541 11.589724l0.325816 2.141073 0.18618 1.117082c0.605086 4.189057 0.232725 5.771589-3.071975 10.938092a26.437602 26.437602 0 0 0-3.583971 7.028306c0.232725 1.163627-1.675623 2.327254-7.586847 4.701053l-4.049421 1.629077-3.770151-8.843564a410.667185 410.667185 0 0 1-4.887233-11.543178l-1.070537-2.653069-4.980322 3.351245c-9.495195 6.097405-12.706805 5.631954-12.939531-1.954893a37.515329 37.515329 0 0 0-0.930901-6.981761c-1.396352-4.887233 0.837811-8.890109 7.121396-12.706805a31.27829 31.27829 0 0 1 7.447212-3.444335c4.514872 0 5.492319-1.396352 5.492318-7.447212v-6.23704l10.705367-8.797019c5.771589-4.794143 11.450088-10.333006 12.66026-12.194809 2.327254-3.909786 18.152579-12.287899 27.647774-14.847879 7.586847-1.954893 19.921292 0.372361 21.364189 4.189057 1.163627 2.978885 1.768713 3.21161 8.983199 2.839249 3.956331-0.232725 7.959208 1.256717 21.271099 7.586847l16.337321 7.959208-3.258155 2.513434c-4.887233 3.723606-8.471203 4.282147-16.663137 2.559979l-10.565731-2.094528-3.444336-0.558541 3.956331 7.121396c2.234164 3.909786 5.445774 8.378113 7.354122 10.007191 4.375237 3.490881 9.215925 3.816696 9.215925 0.465451 0-1.861803 0.837811-2.280709 4.049421-2.280709 3.3047 0 4.514872-0.698176 6.42322-3.909786a10.519187 10.519187 0 0 1 7.586847-5.306139c7.726482-2.094528 8.378113-2.978885 7.586847-9.54174-0.698176-4.980323-0.605086-5.631954 1.070537-4.980323a13.637707 13.637707 0 0 0 3.21161 0.698176c0.558541 0 0.930901 1.722168 0.698176 3.723606-0.372361 3.444335 0 3.770151 3.3047 4.095967 2.606524 0.232725 6.888671-1.256717 14.242793-4.794143 11.031182-5.678499 13.404981-6.097405 16.988952-3.956331 1.768713 1.070537 3.444335 0.930901 7.912662-0.930902a31.83683 31.83683 0 0 1 10.100281-1.815257c3.071975 0.372361 5.585409-0.465451 8.890109-2.65307 3.816696-2.513434 5.492319-2.978885 9.774466-2.420343a37.88769 37.88769 0 0 1 9.72792 3.025429c2.466889 1.256717 6.05086 2.280709 7.679937 2.280709 4.189057 0 3.909786-4.049421-0.605085-10.007191l-3.537426-4.654507 4.840688-6.516311c5.352683-7.121396 10.007191-9.914101 12.567169-7.261031 3.490881 3.351245 4.189057 32.581552 0.837812 37.748055-0.465451 0.837811-3.071975 1.070537-6.516311 0.837811-3.21161-0.372361-5.818134-0.232725-5.818134 0.325816 0 1.396352 7.121396 6.795581 9.029745 6.79558 3.444335 0 6.05086-2.187618 11.729358-9.774465 3.11852-4.189057 6.42322-7.493757 7.261032-7.493757 0.837811 0 2.978885 2.327254 4.747597 5.166503 2.234164 3.909786 3.816696 5.213048 5.911225 5.213048 3.583971 0 3.583971-0.837811-0.232726-7.400666-3.677061-6.42322-8.052298-9.867556-12.334444-9.867556-2.746159 0-3.444335-0.698176-4.514873-4.514872-1.861803-5.725044-1.768713-8.378113 0.232726-11.170818 1.675623-2.047983 1.908348-2.047983 5.725044 2.094529 2.094528 2.327254 4.794143 4.049421 7.819572 4.933777 4.049421 0.791266 4.980323-0.465451 2.001438-2.885794C1100.137792 235.479906 1102.51159 232.733747 1108.888265 232.733747c2.746159 0 6.655946 3.21161 12.10172 9.774465 1.442897 1.722168 1.815258 1.722168 3.444335 0.09309 1.675623-1.582533 1.396352-2.420344-2.792704-8.378113a370.312607 370.312607 0 0 0-5.585409-8.052298c-1.675623-2.559979 3.071975-3.583971 13.358436-2.653069 5.585409 0.325816 10.333006 0.558541 10.565732 0.465451 0.232725-0.232725-0.698176-2.187618-2.001439-4.375237-2.373799-3.816696-2.373799-4.189057-0.46545-5.213048 4.375237-2.327254 16.942407-4.701052 33.465908-6.42322a379.342351 379.342351 0 0 0 18.943845-2.187619l0.37236-0.09309 0.418906-0.09309c1.117082-0.27927 2.792704-0.698176 4.095966-0.930902 2.466889-0.605086 3.3047-1.675623 3.909787-4.747597z m-273.359218 110.311824a16.011505 16.011505 0 0 0-4.049422-6.376675c-1.629078-1.117082-3.677061-1.117082-4.607962-0.09309-1.535987 1.396352-0.837811 5.957769 1.070537 6.981761 1.768713 0.930901 7.586847 0.605086 7.586847-0.558541v0.046545z m76.333921 85.177485c3.258155-3.490881 3.39779-3.583971 1.023991-4.840687-5.119958-2.653069-11.496633-0.930901-15.68569 4.142511-3.39779 4.235602-2.792704 11.636268 1.815258 20.014382 2.839249 5.538864 3.21161 6.935216 2.466889 13.358436a24.203438 24.203438 0 0 0 0.372361 9.44865c1.396352 2.513434 6.981761 3.816696 12.101719 2.792705l3.816696-0.744722-0.744721-9.076289c-0.605086-8.052298-0.325816-9.076289 1.675622-10.239916 2.978885-1.489442 2.141073-2.885795-2.141073-3.723606-2.606524-0.465451-4.049421-2.047983-6.655946-6.888671-3.677061-6.981761-3.444335-8.750474 1.908349-14.242793h0.046545z m31.74374 6.655946c2.606524-3.11852 2.839249-6.004315 0.837811-7.912663-2.234164-2.187618-2.839249-1.768713-4.375237 3.304701-1.908348 6.23704 0 8.750474 3.537426 4.654507v-0.046545zM845.536238 174.78513c-1.442897 0.372361-1.815258 0.930901-0.930901 1.861803a12.38099 12.38099 0 0 1 1.489442 4.840688c0.139635 1.256717 0.232725 2.094528 0.651631 2.606524 0.930901 1.023992 3.351245 0.651631 10.705367-0.465451 5.399229-0.744721 6.05086-0.09309 3.11852 3.165065-3.677061 3.909786-2.839249 13.684252 1.210172 13.684252 0.698176 0 4.002876-4.049421 7.354122-8.9832l5.911224-8.843564-6.51631-3.258155C860.942658 175.716031 858.801584 175.622941 854.752163 178.136375c-3.3047 2.094528-5.306138 1.396352-5.306139-1.954893 0-2.187618-0.232725-2.327254-3.909786-1.396352z m316.785772 2.420344L1165.766345 175.017855c4.468327-2.839249 8.517748-2.746159 11.822449 0.232726 2.606524 2.420344 2.978885 2.420344 5.818134 0.605086l2.978885-1.861803v5.166503c0 4.654507-0.372361 5.306138-2.001438 4.747597a641.949657 641.949657 0 0 1-12.101719-3.723606L1162.32201 177.205474zM888.357706 170.223713a9.588285 9.588285 0 0 0-3.956331 3.444335c-1.629078 2.420344-1.768713 3.071975-0.465451 4.002877 3.909786 2.559979 17.314767-2.187618 14.382428-5.073414A17.780218 17.780218 0 0 0 888.357706 170.177168v0.046545z m105.378047 0.791266C990.291418 167.198283 990.012147 166.360472 991.68777 165.708841c3.071975-1.256717 6.42322-1.023992 12.706805 0.698176 3.21161 0.930901 7.354122 1.954893 9.26247 2.420344 2.699614 0.558541 3.21161 0.930901 1.768712 1.861802-2.606524 1.582533-8.564294 1.256717-11.403543-0.744721-2.141073-1.396352-3.071975-1.489442-5.678499-0.325815-2.978885 1.256717-2.978885 1.489442-1.070536 2.885794 1.210172 0.791266 1.675623 1.861803 1.303262 2.327254-0.465451 0.325816-2.606524-1.303262-4.840688-3.816696zM976.37444 167.105193c0-0.605086 1.442897-1.489442 3.351246-2.094529 5.445774-1.954893 6.283585-1.722168 5.445773 1.722168-0.605086 2.187618-0.232725 3.490881 1.303262 4.514872 1.210172 0.930901 1.861803 1.861803 1.535988 2.187619-0.837811 0.791266-11.636268-5.073413-11.636269-6.33013z m217.830945 21.410734c-2.792704 1.023992-2.327254-1.163627 1.210172-5.166503 3.444335-4.049421 4.980323-4.282147 10.239917-1.768713 4.189057 2.187618 3.39779 3.11852-3.956332 4.840687l-1.256717 0.325816-0.651631 0.18618a51.897757 51.897757 0 0 0-5.585409 1.582533z m-37.654964 5.026868l-2.83925 2.187618h16.616592l-2.885795-2.187618a10.239916 10.239916 0 0 0-5.445774-2.280709 10.239916 10.239916 0 0 0-5.445773 2.327254v-0.046545z m-112.545988 11.543178a201.772895 201.772895 0 0 0-18.99039 4.282147c-5.818134 1.861803-6.888671 2.606524-9.727921 7.679937-1.675623 3.11852-2.839249 6.23704-2.606524 6.935216 0.232725 0.651631-1.675623 2.746159-4.375237 4.468327l-4.747597 3.351245 4.002876 4.701053c4.421782 5.213048 9.867556 7.400667 8.703929 3.49088-2.280709-7.261032-2.141073-8.331568 1.396352-13.265346 6.05086-8.610839 13.498071-14.428973 21.224553-16.476956 29.090671-8.052298 30.626659-9.54174 5.119959-5.166503z m304.497872 6.655945c-7.121396 0.372361-9.122834-1.023992-7.447212-4.933777 0.791266-2.187618 1.163627-2.187618 8.843564 0.09309 8.005753 2.327254 7.400667 4.375237-1.396352 4.840687zM778.045881 323.31046c-5.818134 5.864679-5.492319 10.379551 0.930902 17.966399a10.705367 10.705367 0 0 1 0.465451 13.823887l-2.466889 2.978884 2.699614 1.396352c2.094528 1.023992 3.071975 1.489442 3.165065 2.141074 0.046545 0.558541-0.558541 1.210172-1.722168 2.466889l-2.280708 2.513434 7.493756-0.698176c5.585409-0.465451 8.285023-1.256717 10.333007-3.11852l2.699614-2.513434-5.306138-8.843564a137.819963 137.819963 0 0 0-8.331568-12.56717c-2.234164-2.885795-2.699614-4.468327-2.141074-7.121396 0.605086-2.792704 0.372361-3.490881-1.163627-3.490881-2.513434 0-3.444335-2.746159-1.768713-5.585409 1.768713-3.258155 1.070537-3.02543-2.606524 0.651631z m582.883959 50.734131c-3.723606-0.651631-6.33013-19.316206-3.444336-24.249984 0.744721-1.163627 1.117082-1.768713 1.349807-1.722168 0.27927 0.09309 0.372361 0.930901 0.558541 2.65307 0.232725 1.861803 1.023992 8.052298 1.861803 13.591161 1.396352 9.076289 1.303262 10.100281-0.325815 9.774466v-0.046545z m-7.959208 27.927044c-1.070537 2.513434-2.373799 4.561417-2.83925 4.561417-1.768713 0-2.513434 4.514872-1.303262 6.795581 1.256717 2.280709 1.396352 2.187618 7.726483-0.465451l0.46545-0.18618a41.425116 41.425116 0 0 0 9.122835-5.213049l2.373799-2.187618-2.373799-1.722168a59.298424 59.298424 0 0 0-6.749036-4.002876l-4.514872-2.187619-1.908348 4.561418v0.046545z m-11.636268 35.327711a51.665032 51.665032 0 0 1 4.980322-9.215925 26.903053 26.903053 0 0 1 4.980323-6.51631c0.465451 0 1.535987 1.582533 2.466889 3.537425 1.303262 3.11852 1.210172 4.840688-0.558541 11.263908-3.723606 13.730797-4.887233 15.220239-14.382427 17.733673-7.912663 2.094528-8.378113 2.187618-12.10172 0.139636-2.141073-1.070537-4.282147-1.629078-4.747597-1.163627-0.605086 0.465451 0 1.396352 1.210172 1.954893 2.93234 1.629078 2.466889 2.978885-1.582533 4.375237-2.327254 0.698176-4.840688 3.258155-7.354121 6.981761l-3.770151 5.911224-2.141074-6.655945a49.989409 49.989409 0 0 1-2.141073-8.424659c0-1.629078 29.788847-17.407858 32.860822-17.268222 0.698176 0 1.768713-1.163627 2.280709-2.653069zM1271.423663 534.020009a19.828201 19.828201 0 0 0-1.303262 11.403543c0.605086 3.071975 2.280709 5.026868 7.447212 8.936654 10.007191 7.400667 10.705367 7.493757 4.887232 0.930902-8.843564-10.100281-9.215925-11.031182-6.6094-15.639145 1.163627-2.187618 1.768713-4.514872 1.396352-5.166503-0.930901-1.396352-5.119958-1.768713-5.818134-0.465451zM1190.621415 590.898089a369.567885 369.567885 0 0 0-3.677061-11.077728c-1.396352-3.351245 9.867556 10.705367 12.47408 15.68569 2.234164 4.235602 3.444335 11.822449 2.141073 13.218801-1.535987 1.396352-8.191933-9.44865-10.938092-17.826763z m95.417401-12.008629l-2.978885 1.117082-0.884356 0.325815-0.791266 0.279271-2.699615 0.930901 2.699615 2.187619c1.582533 1.163627 4.049421 2.653069 5.585408 3.444335 2.513434 1.303262 2.839249 1.070537 4.282147-2.373799 2.373799-5.306138 0.139635-7.866117-5.213048-5.911224z m-58.134797 45.381447c-4.282147-8.285023-3.909786-8.983199 12.799895-22.341636 8.331568-6.655946 15.452964-12.194809 15.825325-12.194809 0.465451-0.139635 2.094528 0.930901 3.909786 2.327254l3.071975 2.373799-3.58397 4.189056-3.537426 4.095967 2.327254 2.420344c3.11852 3.258155 3.02543 7.261032-0.465451 13.358436-1.489442 2.792704-3.39779 7.167941-4.235602 9.681375-2.141073 6.469765-3.21161 7.447212-8.191933 7.447212a23.877623 23.877623 0 0 1-17.919853-11.356998z m-51.013401-27.182323c0 0.372361 1.303262 2.559979 2.83925 4.933778 1.535987 2.327254 5.585409 9.309015 9.029744 15.452964 6.14395 10.938092 15.87187 23.924168 18.524939 24.761979 0.791266 0.232725 2.234164-2.094528 3.258155-5.119958l1.954893-5.352683-6.42322-5.911225a170.820421 170.820421 0 0 1-14.940968-16.104595 149.316597 149.316597 0 0 0-10.426097-11.868994c-1.908348-1.396352-3.816696-1.861803-3.816696-0.791266z m90.157808 43.985094c0-1.954893-0.372361-7.261032-0.837811-11.496633l-0.698177-7.819572 4.654508 0.791266c5.073413 0.791266 6.51631 1.629078 4.328692 2.420344-2.234164 0.791266-1.861803 2.978885 1.442897 8.517748 2.839249 4.933778 3.816696 9.076289 2.141073 9.07629-0.605086 0-2.141073-2.653069-3.58397-5.864679-1.535987-3.258155-3.165065-5.538864-3.909787-5.073413-0.558541 0.372361-1.163627 3.583971-1.163626 7.028306s-0.465451 6.23704-1.210172 6.23704c-0.558541 0-1.163627-1.722168-1.163627-3.816697z m51.292671-15.639144c2.699614 1.954893 3.071975 2.792704 2.001438 4.701052l-0.139635 0.232726-0.09309 0.18618c-0.465451 0.791266-0.744721 1.303262-0.605086 1.722168 0.18618 0.744721 1.675623 1.163627 6.004314 2.327253l0.930902 0.279271c8.517748 2.420344 14.428973 8.052298 14.801333 14.242792 0.232725 4.189057 0.698176 4.514872 6.655946 6.935216 8.145388 3.21161 9.588285 3.21161 14.708243-0.139635 4.840688-3.21161 8.145388-2.885795 10.891547 1.256717 2.141073 3.11852 8.564294 7.866117 9.495196 6.935216 0.372361-0.372361-0.465451-2.094528-1.768713-3.909786a31.83683 31.83683 0 0 1-3.723606-7.493757c-2.094528-6.33013-6.51631-9.774465-20.945283-16.570046-13.637707-6.469765-18.524939-7.400667-22.574361-4.514872-3.537426 2.653069-6.283585 2.094528-8.750474-2.047984-3.351245-5.538864-4.514872-6.562855-7.447212-6.562855-2.513434 0.09309-2.513434 0.232725 0.558541 2.420344z m68.188533 20.247107c-2.466889-0.791266-1.535987-2.978885 2.141074-5.399229 4.049421-2.559979 5.352683-2.885795 5.352683-1.163627 0 1.954893-5.818134 7.121396-7.447212 6.562856h-0.046545z m-173.426945 2.653069c-0.465451 0.698176-0.605086 1.489442-0.46545 1.629078 1.629078 1.256717 29.509577 7.121396 29.183761 6.050859-0.744721-2.280709-8.424658-5.259593-16.523501-6.51631a70.841602 70.841602 0 0 1-9.588285-1.861803c-0.930901-0.325816-2.141073 0-2.606525 0.698176z m71.865594 17.221677c-2.466889 0-1.163627-2.141073 3.723606-6.190495 5.306138-4.468327 6.376675-4.933778 7.074851-2.792704 0.605086 1.535987-8.517748 9.029744-10.798457 9.029744v-0.046545z m-316.04105 46.079623c2.001438-11.962084 4.468327-16.570046 13.730796-24.761979 4.514872-4.142512 8.424658-7.354122 8.657384-7.121396 1.070537 1.023992-2.141073 21.783095-5.585409 35.234621-4.142512 16.570046-7.447212 22.434726-12.194809 21.736549-5.352683-0.651631-7.121396-10.100281-4.654507-25.087795h0.046545z" fill="#2B79FF" p-id="32988"></path></svg>