<?xml version="1.0" standalone="no"?><!DOCTYPE svg PUBLIC "-//W3C//DTD SVG 1.1//EN" "http://www.w3.org/Graphics/SVG/1.1/DTD/svg11.dtd"><svg t="1731294449634" class="icon" viewBox="0 0 1024 1024" version="1.1" xmlns="http://www.w3.org/2000/svg" p-id="3134" xmlns:xlink="http://www.w3.org/1999/xlink" width="200" height="200"><path d="M1024.059058 324.595181a161.003143 161.003143 0 0 0-21.785165-88.945596 34.685565 34.685565 0 0 0-3.232096-8.395054c-71.357959-132.264075-43.458396-80.830378-112.213888-205.972649a18.916855 18.916855 0 0 0-13.991757-17.895457 22.960473 22.960473 0 0 0-16.510273-2.952261c-4.071601-0.307819-8.213161-0.307819-12.158836-0.307818-135.915924-0.181893-526.355892-0.181893-662.411734 0a137.119215 137.119215 0 0 0-14.565418 0.629629 24.625492 24.625492 0 0 0-27.647711 13.725913c-73.736557 134.069012-43.374446 78.255895-116.13158 212.954536a35.413136 35.413136 0 0 0-3.246088 8.395053A159.3801 159.3801 0 0 0 0.184284 321.055267v557.851336c0 102.99332 29.830425 144.772706 132.138149 144.982582 118.006475 0.097942 261.324038 0 379.30253 0 121.014703 0 241.973439 0.293827 362.8902-0.111934 94.808143-0.293827 149.320027-43.934116 149.320027-138.168596 0.32181-192.960315 0.32181-368.346985 0.223868-561.069441zM873.129979 111.738588l2.798351 5.190942 0.699588 1.315225c21.071585 38.63124 26.584338 48.817239 37.385974 68.727508a239.916651 239.916651 0 0 0-28.27734-1.734977l-36.378567-0.083951V67.692538c7.695466 14.747311 15.796693 29.382689 23.702035 44.018067z m-56.596655-67.160432v140.435261q-302.375852-0.615637-604.751705 0V44.578156h103.538999c61.899531 0 388.243263 0.097942 501.268673 0zM145.810487 118.370681l0.405761-0.615638 3.148145-5.904521c9.934147-18.39916 20.162121-36.700378 29.480631-55.421348v128.724161l-44.269918 0.111934a247.654092 247.654092 0 0 0-26.024667 1.399176l37.288031-68.321748z m729.949942 837.056839q-177.107655 0.153909-354.271277 0c-116.13158 0-256.580833 0.097942-372.796363-0.097942a111.388374 111.388374 0 0 1-46.662509-7.989293l83.502804-128.724161a13.767889 13.767889 0 0 0 1.399175-10.465834 13.753897 13.753897 0 0 0-6.436208-8.395054l-5.344851-3.120162a13.432086 13.432086 0 0 0-10.381883-1.399175 13.46007 13.46007 0 0 0-8.227153 6.492175l-78.85754 120.776843a117.208945 117.208945 0 0 1-8.017277-48.285552v-549.876035c0.097942-59.311056 20.987635-80.914329 79.277293-80.914329h727.067641c58.30365 0.097942 79.179351 21.603272 79.179351 81.152189v549.876035a111.178498 111.178498 0 0 1-9.052667 50.160447l-54.707768-78.353837a13.530029 13.530029 0 0 0-8.269128-6.380241 13.54402 13.54402 0 0 0-10.339909 1.399176l-5.344851 3.134153a13.879823 13.879823 0 0 0-5.079007 18.678995l58.513526 84.943955a117.152978 117.152978 0 0 1-45.137407 7.289705z m0 0" fill="#3385FF" p-id="3135"></path><path d="M576.11297 788.268004l121.728282-66.083067c0.223868-0.167901 1.007406-1.105349 1.007407-2.840326v-128.500293l-121.910176 66.181009a5.302876 5.302876 0 0 0-0.825513 3.078186v128.164491m-118.384253-0.279835v-128.584244a4.603288 4.603288 0 0 0-0.79753-2.7144l-121.938159-65.915166v128.584244c0 1.581068 0.489711 2.448557 0.671604 2.658433l0.041976 0.013992 122.008117 65.957141m59.548916-244.268087a8.730856 8.730856 0 0 0 4.001643-0.741563l115.418-60.276488-116.103596-60.626281a40.520127 40.520127 0 0 1-0.741563-0.391769 9.332502 9.332502 0 0 0-2.910286-0.349794 8.730856 8.730856 0 0 0-4.099585 0.79753l-116.467382 60.416405 116.159564 60.388421 0.685596 0.363786a11.47324 11.47324 0 0 0 3.372013 0.419753h0.699588m38.225479 300.668858c-11.025504 0-21.365412-9.990114-21.365412-23.422201V660.103513c0-16.88805 8.618922-32.390917 22.736604-39.960457l152.943892-83.013092a20.008212 20.008212 0 0 1 9.654312-2.420573c11.011512 0 21.351421 9.654312 21.351421 23.086398v161.548822c0 16.88805-8.954724 32.041123-22.736605 39.610663l-152.9299 83.027084a20.008212 20.008212 0 0 1-9.654312 2.406582z m-77.164538 0c-3.092178 0-6.548142-1.03539-9.654312-2.756376l-152.929899-82.67729c-14.131674-7.56954-22.736604-22.722613-22.736605-39.596671V557.781797c0-13.432086 10.339908-23.086398 21.351421-23.086398 3.10617 0 6.548142 0.699588 9.654312 2.420574l152.9299 82.663298c14.131674 7.583532 22.750596 23.086398 22.750596 39.624654V820.952747c0 13.432086-10.339908 23.422201-21.365413 23.422201z m38.925067-258.70758h-0.685596c-8.255136 0-16.538256-1.706994-23.4222-5.49876l-155.700268-80.942312c-7.233738-3.791766-10.339908-10.3539-9.990114-16.538257-0.349794-6.548142 2.756376-13.096284 9.990114-16.88805l156.03607-80.942312a49.908596 49.908596 0 0 1 23.436192-5.512752c8.255136 0 16.188462 1.720986 23.086399 5.512752l155.686275 81.292106c7.233738 3.777774 10.67571 9.990114 9.990115 16.538256 0.699588 6.198348-2.756376 12.732499-9.990115 16.538257L540.685842 580.1826a49.908596 49.908596 0 0 1-23.422201 5.512752z" fill="#3385FF" p-id="3136"></path><path d="M42.159554 230.542593L182.07712 42.689269v771.785295L42.159554 986.097451z" fill="#3385FF" opacity=".5" p-id="3137"></path><path d="M979.607247 230.542593L848.826298 47.992145v767.671718L979.607247 986.097451z" fill="#3385FF" opacity=".5" p-id="3138"></path></svg>