<?xml version="1.0" standalone="no"?><!DOCTYPE svg PUBLIC "-//W3C//DTD SVG 1.1//EN" "http://www.w3.org/Graphics/SVG/1.1/DTD/svg11.dtd"><svg t="1731293406534" class="icon" viewBox="0 0 1024 1024" version="1.1" xmlns="http://www.w3.org/2000/svg" p-id="1057" xmlns:xlink="http://www.w3.org/1999/xlink" width="200" height="200"><path d="M80 112h864v160H80z" fill="#CED8ED" p-id="1058"></path><path d="M80 272h864v576H80z" fill="#C5E4FA" p-id="1059"></path><path d="M636.16 848L944 540.16V273.28h-41.12L328.16 848h308zM142.4 848h123.2l574.72-574.72h-123.2L142.4 848zM80 819.2v12.8h7.68L646.4 273.28h-20.48L80 819.2z" fill="#E3F2FF" p-id="1060"></path><path d="M528 560h96v224h-96z" fill="#ED7899" p-id="1061"></path><path d="M688 656h96v128h-96z" fill="#72CAAF" p-id="1062"></path><path d="M368 688h96v96h-96z" fill="#FFEB9B" p-id="1063"></path><path d="M208 624h96v160h-96z" fill="#85CBF8" p-id="1064"></path><path d="M184 320l19.84 36.16L240 376l-36.16 19.84L184 432l-19.84-36.16L128 376l36.16-19.84L184 320zM758.72 322.56l13.6 25.12 25.12 13.6-25.12 13.76-13.6 24.96-13.76-24.96-24.96-13.76 24.96-13.6 13.76-25.12zM394.4 379.2l9.28 17.12 17.12 9.28-17.12 9.28-9.28 17.12-9.28-17.12-17.12-9.28 17.12-9.28 9.28-17.12z" fill="#FFF8F8" p-id="1065"></path><path d="M256 480m-32 0a32 32 0 1 0 64 0 32 32 0 1 0-64 0Z" fill="#FFF8F8" p-id="1066"></path><path d="M416 544m-32 0a32 32 0 1 0 64 0 32 32 0 1 0-64 0Z" fill="#FFF8F8" p-id="1067"></path><path d="M576 400m-32 0a32 32 0 1 0 64 0 32 32 0 1 0-64 0Z" fill="#FFF8F8" p-id="1068"></path><path d="M736 496m-32 0a32 32 0 1 0 64 0 32 32 0 1 0-64 0Z" fill="#FFF8F8" p-id="1069"></path><path d="M816 768h-16v-112a16 16 0 0 0-16-16h-96a16 16 0 0 0-16 16v112h-32V560a16 16 0 0 0-16-16h-96a16 16 0 0 0-16 16v208h-32v-80a16 16 0 0 0-16-16h-96a16 16 0 0 0-16 16v80h-32v-144a16 16 0 0 0-16-16h-96a16 16 0 0 0-16 16v144h-16a16 16 0 0 0 0 32h640a16 16 0 0 0 0-32z m-592 0v-128h64v128z m160 0v-64h64v64z m160 0V576h64v192z m160 0v-96h64v96zM880 256h-64a16 16 0 0 0 0 32h64a16 16 0 0 0 0-32z" fill="#8D6C9F" p-id="1070"></path><path d="M912 96H112a48 48 0 0 0-48 48v672a48 48 0 0 0 48 48h800a48 48 0 0 0 48-48V144a48 48 0 0 0-48-48z m16 720a16 16 0 0 1-16 16H112a16 16 0 0 1-16-16V288h656a16 16 0 0 0 0-32H96V144a16 16 0 0 1 16-16h800a16 16 0 0 1 16 16z" fill="#8D6C9F" p-id="1071"></path><path d="M320 160a16 16 0 0 0-16 16v32a16 16 0 0 0 32 0v-32a16 16 0 0 0-16-16zM240 160a16 16 0 0 0-16 16v32a16 16 0 0 0 32 0v-32a16 16 0 0 0-16-16zM160 160a16 16 0 0 0-16 16v32a16 16 0 0 0 32 0v-32a16 16 0 0 0-16-16zM560 160a16 16 0 0 0-16 16v32a16 16 0 0 0 32 0v-32a16 16 0 0 0-16-16zM640 160a16 16 0 0 0-16 16v32a16 16 0 0 0 32 0v-32a16 16 0 0 0-16-16zM720 160a16 16 0 0 0-16 16v32a16 16 0 0 0 32 0v-32a16 16 0 0 0-16-16zM800 224a16 16 0 0 0 16-16v-32a16 16 0 0 0-32 0v32a16 16 0 0 0 16 16zM880 160a16 16 0 0 0-16 16v32a16 16 0 0 0 32 0v-32a16 16 0 0 0-16-16zM400 160a16 16 0 0 0-16 16v32a16 16 0 0 0 32 0v-32a16 16 0 0 0-16-16zM480 160a16 16 0 0 0-16 16v32a16 16 0 0 0 32 0v-32a16 16 0 0 0-16-16zM868.64 340.64l-112 112a46.72 46.72 0 0 0-50.88 6.24l-82.56-49.6a48 48 0 1 0-91.36 8.8l-92.96 83.68a46.88 46.88 0 0 0-58.56 10.4L304 481.92V480a48 48 0 0 0-96 0 48 48 0 0 0 2.08 13.12l-75.36 53.92a16 16 0 0 0 18.56 26.08l75.2-53.76a48 48 0 0 0 64-7.68l75.52 30.4V544a48 48 0 1 0 92.32-18.4l92.96-83.68a46.56 46.56 0 0 0 53.12-5.12l82.56 49.6A48 48 0 1 0 784 496a48 48 0 0 0-4.8-20.64l112-112a16 16 0 0 0-22.56-22.56zM256 498.72A18.72 18.72 0 1 1 274.72 480 18.72 18.72 0 0 1 256 498.72z m160 64A18.72 18.72 0 1 1 434.72 544 18.72 18.72 0 0 1 416 562.72z m160-144A18.72 18.72 0 1 1 594.72 400 18.72 18.72 0 0 1 576 418.72z m160 96A19.36 19.36 0 1 1 755.36 496 19.36 19.36 0 0 1 736 515.36z" fill="#8D6C9F" p-id="1072"></path></svg>