<?xml version="1.0" standalone="no"?><!DOCTYPE svg PUBLIC "-//W3C//DTD SVG 1.1//EN" "http://www.w3.org/Graphics/SVG/1.1/DTD/svg11.dtd"><svg t="1731293565830" class="icon" viewBox="0 0 1024 1024" version="1.1" xmlns="http://www.w3.org/2000/svg" p-id="32799" xmlns:xlink="http://www.w3.org/1999/xlink" width="200" height="200"><path d="M736 112H96a80 80 0 0 0-80 80v640a80 80 0 0 0 80 80h640a80 80 0 0 0 80-80V192a80 80 0 0 0-80-80z" fill="#FFA000" p-id="32800"></path><path d="M736 104H96A88.096 88.096 0 0 0 8 192v640c0 48.528 39.472 88 88 88h640c48.528 0 88-39.472 88-88V192c0-48.528-39.472-88-88-88zM808 832c0 39.696-32.304 72-72 72H96A72.08 72.08 0 0 1 24 832V192c0-39.696 32.304-72 72-72h640c39.696 0 72 32.304 72 72v640z" fill="#37474F" p-id="32801"></path><path d="M928 112H288a80 80 0 0 0-80 80v640a80 80 0 0 0 80 80h640a80 80 0 0 0 80-80V192a80 80 0 0 0-80-80z" fill="#FFCA28" p-id="32802"></path><path d="M928 104H288a88.096 88.096 0 0 0-88 88v640c0 48.528 39.472 88 88 88h640c48.528 0 88-39.472 88-88V192c0-48.528-39.472-88-88-88zM1000 832c0 39.696-32.304 72-72 72H288a72.08 72.08 0 0 1-72-72V192c0-39.696 32.304-72 72-72h640c39.696 0 72 32.304 72 72v640z" fill="#37474F" p-id="32803"></path><path d="M288 872a40.048 40.048 0 0 1-40-40V192c0-22.048 17.952-40 40-40a8 8 0 0 0 0-16c-30.88 0-56 25.12-56 56v640c0 30.88 25.12 56 56 56a8 8 0 0 0 0-16z" fill="#FFE082" p-id="32804"></path><path d="M96 872A40.048 40.048 0 0 1 56 832V192c0-22.048 17.952-40 40-40a8 8 0 0 0 0-16c-30.88 0-56 25.12-56 56v640c0 30.88 25.12 56 56 56a8 8 0 0 0 0-16z" fill="#FFCA28" p-id="32805"></path><path d="M928 136a8 8 0 0 0 0 16c22.048 0 40 17.952 40 40v640c0 22.048-17.952 40-40 40a8 8 0 0 0 0 16c30.88 0 56-25.12 56-56V192c0-30.88-25.12-56-56-56z" fill="#FFA000" p-id="32806"></path><path d="M872 208h-528a40 40 0 0 0-40 40v448a40 40 0 0 0 40 40h528a40 40 0 0 0 40-40v-448a40 40 0 0 0-40-40z" fill="#EEEEEE" p-id="32807"></path><path d="M872 200h-528c-26.464 0-48 21.536-48 48v448c0 26.464 21.536 48 48 48h528c26.464 0 48-21.536 48-48v-448c0-26.464-21.536-48-48-48z m32 496c0 17.648-14.352 32-32 32h-528c-17.648 0-32-14.352-32-32v-448c0-17.648 14.352-32 32-32h528c17.648 0 32 14.352 32 32v448z" fill="#37474F" p-id="32808"></path><path d="M320 776h112v48h-112z" fill="#EEEEEE" p-id="32809"></path><path d="M432 768h-112a8 8 0 0 0-8 8v48a8 8 0 0 0 8 8h112a8 8 0 0 0 8-8v-48a8 8 0 0 0-8-8z m-8 48h-96v-32h96v32z" fill="#37474F" p-id="32810"></path><path d="M808 800m-24 0a24 24 0 1 0 48 0 24 24 0 1 0-48 0Z" fill="#EEEEEE" p-id="32811"></path><path d="M808 768c-17.648 0-32 14.352-32 32s14.352 32 32 32 32-14.352 32-32-14.352-32-32-32z m0 48c-8.816 0-16-7.184-16-16s7.184-16 16-16 16 7.184 16 16-7.184 16-16 16z" fill="#37474F" p-id="32812"></path><path d="M728 800m-24 0a24 24 0 1 0 48 0 24 24 0 1 0-48 0Z" fill="#EEEEEE" p-id="32813"></path><path d="M728 768c-17.648 0-32 14.352-32 32s14.352 32 32 32 32-14.352 32-32-14.352-32-32-32z m0 48c-8.816 0-16-7.184-16-16s7.184-16 16-16 16 7.184 16 16-7.184 16-16 16z" fill="#37474F" p-id="32814"></path><path d="M888 800m-24 0a24 24 0 1 0 48 0 24 24 0 1 0-48 0Z" fill="#EEEEEE" p-id="32815"></path><path d="M888 768c-17.648 0-32 14.352-32 32s14.352 32 32 32 32-14.352 32-32-14.352-32-32-32z m0 48c-8.816 0-16-7.184-16-16s7.184-16 16-16 16 7.184 16 16-7.184 16-16 16z" fill="#37474F" p-id="32816"></path><path d="M784 688H432a16 16 0 0 0-16 16v32h384v-32a16 16 0 0 0-16-16z" fill="#78909C" p-id="32817"></path><path d="M784 680H432c-13.232 0-24 10.768-24 24v32a8 8 0 0 0 8 8h384a8 8 0 0 0 8-8v-32c0-13.232-10.768-24-24-24z m8 48h-368V704a8 8 0 0 1 8-8h352a8 8 0 0 1 8 8v24z" fill="#37474F" p-id="32818"></path><path d="M304 376h64v192h-64z" fill="#78909C" p-id="32819"></path><path d="M368 368h-64a8 8 0 0 0-8 8v192a8 8 0 0 0 8 8h64a8 8 0 0 0 8-8v-192a8 8 0 0 0-8-8z m-8 192h-48V384h48v176z" fill="#37474F" p-id="32820"></path><path d="M432 624h-24c-17.648 0-32-14.352-32-32V352c0-17.648 14.352-32 32-32H432a8 8 0 0 0 0-16h-24c-26.464 0-48 21.536-48 48v240c0 26.464 21.536 48 48 48H432a8 8 0 0 0 0-16z" fill="#37474F" p-id="32821"></path><path d="M848 376h64v192h-64z" fill="#78909C" p-id="32822"></path><path d="M912 368h-64a8 8 0 0 0-8 8v192a8 8 0 0 0 8 8h64a8 8 0 0 0 8-8v-192a8 8 0 0 0-8-8z m-8 192h-48V384h48v176z" fill="#37474F" p-id="32823"></path><path d="M808 304H784a8 8 0 0 0 0 16h24c17.648 0 32 14.352 32 32v240c0 17.648-14.352 32-32 32H784a8 8 0 0 0 0 16h24c26.464 0 48-21.536 48-48V352c0-26.464-21.536-48-48-48z" fill="#37474F" p-id="32824"></path><path d="M608 472m-144 0a144 144 0 1 0 288 0 144 144 0 1 0-288 0Z" fill="#26C6DA" p-id="32825"></path><path d="M608 320c-83.808 0-152 68.192-152 152S524.192 624 608 624s152-68.192 152-152S691.808 320 608 320z m0 288c-74.992 0-136-61.008-136-136S533.008 336 608 336s136 61.008 136 136S682.992 608 608 608z" fill="#37474F" p-id="32826"></path><path d="M608 320c-53.568 0-97.136 68.192-97.136 152S554.432 624 608 624s97.136-68.192 97.136-152S661.568 320 608 320z m0 288c-44.736 0-81.136-61.008-81.136-136S563.264 336 608 336s81.136 61.008 81.136 136S652.736 608 608 608z" fill="#37474F" p-id="32827"></path><path d="M608 320a8 8 0 0 0-8 8V688a8 8 0 0 0 16 0V328a8 8 0 0 0-8-8z" fill="#37474F" p-id="32828"></path><path d="M752 464H464a8 8 0 0 0 0 16h288a8 8 0 0 0 0-16zM424 368H400a8 8 0 0 0 0 16h24a8 8 0 0 0 0-16zM416 464h-16a8 8 0 0 0 0 16h16a8 8 0 0 0 0-16zM416 560h-16a8 8 0 0 0 0 16h16a8 8 0 0 0 0-16zM432 512h-16a8 8 0 0 0 0 16h16a8 8 0 0 0 0-16zM432 416h-16a8 8 0 0 0 0 16h16a8 8 0 0 0 0-16zM816 560h-24a8 8 0 0 0 0 16H816a8 8 0 0 0 0-16zM816 464h-16a8 8 0 0 0 0 16h16a8 8 0 0 0 0-16zM816 368h-16a8 8 0 0 0 0 16h16a8 8 0 0 0 0-16zM800 416h-16a8 8 0 0 0 0 16h16a8 8 0 0 0 0-16zM800 512h-16a8 8 0 0 0 0 16h16a8 8 0 0 0 0-16z" fill="#37474F" p-id="32829"></path></svg>