<?xml version="1.0" standalone="no"?><!DOCTYPE svg PUBLIC "-//W3C//DTD SVG 1.1//EN" "http://www.w3.org/Graphics/SVG/1.1/DTD/svg11.dtd"><svg t="1731290892520" class="icon" viewBox="0 0 1024 1024" version="1.1" xmlns="http://www.w3.org/2000/svg" p-id="4586" xmlns:xlink="http://www.w3.org/1999/xlink" width="200" height="200"><path d="M512 512m-512 0a512 512 0 1 0 1024 0 512 512 0 1 0-1024 0Z" fill="#5D51F6" p-id="4587"></path><path d="M663.2 484.8c-76 0-138.4-92.8-148.8-169.6C504 392 440.8 484.8 365.6 484.8c-64.8 0-119.2-42.4-140.8-102.4l16.8 311.2h546.4l16.8-311.2c-21.6 59.2-76.8 102.4-141.6 102.4z" fill="#FBD000" p-id="4588"></path><path d="M663.2 516.8c64.8 0 119.2-74.4 140.8-134.4-21.6 60-76.8 102.4-140.8 102.4-76 0-138.4-92.8-148.8-169.6 10.4 76 72.8 201.6 148.8 201.6zM368 520c76 0 135.2-128.8 146.4-205.6-10.4 76.8-73.6 169.6-148.8 169.6-64.8 0-119.2-42.4-140.8-102.4C245.6 441.6 303.2 520 368 520z" fill="#F4B10B" p-id="4589"></path><path d="M787.2 701.6H240.8c-4 0-8-3.2-8-7.2l-16.8-312c0-4 2.4-7.2 6.4-8 4-0.8 8 1.6 8.8 4.8C252 437.6 308.8 480 368 480c68 0 127.2-89.6 138.4-166.4 0.8-4 4-7.2 8-7.2s7.2 3.2 8 7.2C532.8 390.4 596 480 664 480c59.2 0 112-42.4 132.8-100.8 1.6-4 5.6-5.6 8.8-4.8 4 0.8 6.4 4 6.4 8l-16.8 311.2c0 4.8-4 8-8 8z m-538.4-16h531.2l14.4-265.6C764.8 464.8 716.8 496 664 496c-67.2 0-127.2-72.8-149.6-145.6C491.2 423.2 435.2 496 368 496c-52.8 0-104.8-31.2-134.4-76l15.2 265.6z" fill="#223D48" p-id="4590"></path><path d="M808 360m-40 0a40 40 0 1 0 80 0 40 40 0 1 0-80 0Z" fill="#FBD000" p-id="4591"></path><path d="M808 369.6c-16.8 0-31.2-9.6-36.8-24-2.4 4.8-3.2 9.6-3.2 15.2 0 21.6 17.6 38.4 40 38.4s40-17.6 40-38.4c0-5.6-0.8-10.4-3.2-15.2-5.6 14.4-20 24-36.8 24z" fill="#F4B10B" p-id="4592"></path><path d="M472 296a40 40 0 1 0 80 0 40 40 0 1 0-80 0Z" fill="#FBD000" p-id="4593"></path><path d="M512 304c-16.8 0-30.4-10.4-36.8-25.6-2.4 4.8-3.2 10.4-3.2 16 0 22.4 17.6 41.6 40 41.6s40-18.4 40-41.6c0-5.6-0.8-11.2-3.2-16-6.4 15.2-20 25.6-36.8 25.6z" fill="#F4B10B" p-id="4594"></path><path d="M808 408c-26.4 0-48-21.6-48-48s21.6-48 48-48 48 21.6 48 48-21.6 48-48 48z m0-79.2c-17.6 0-31.2 14.4-31.2 31.2 0 17.6 14.4 31.2 31.2 31.2 17.6 0 31.2-14.4 31.2-31.2 0-16.8-13.6-31.2-31.2-31.2zM512 344c-26.4 0-48-21.6-48-48s21.6-48 48-48 48 21.6 48 48-21.6 48-48 48z m0-80c-17.6 0-32 14.4-32 32s14.4 32 32 32 32-14.4 32-32-14.4-32-32-32z" fill="#223D48" p-id="4595"></path><path d="M821.6 696.8c0 17.6-14.4 32-32 32H236c-17.6 0-32-14.4-32-32v-11.2c0-17.6 14.4-32 32-32h553.6c17.6 0 32 14.4 32 32v11.2z" fill="#FBD000" p-id="4596"></path><path d="M512 568m-40 0a40 40 0 1 0 80 0 40 40 0 1 0-80 0Z" fill="#F4B10B" p-id="4597"></path><path d="M789.6 702.4H236c-15.2 0-28-10.4-31.2-24.8-0.8 2.4-0.8 4.8-0.8 7.2V696c0 17.6 14.4 32 32 32h553.6c17.6 0 32-14.4 32-32v-11.2c0-2.4 0-4.8-0.8-7.2-3.2 14.4-16 24.8-31.2 24.8z" fill="#F4B10B" p-id="4598"></path><path d="M792 736H240c-22.4 0-40-17.6-40-40v-16c0-22.4 17.6-40 40-40h552c22.4 0 40 17.6 40 40v16c0 22.4-17.6 40-40 40zM240 656c-13.6 0-24 10.4-24 24v16c0 13.6 10.4 24 24 24h552c13.6 0 24-10.4 24-24v-16c0-13.6-10.4-24-24-24H240z" fill="#223D48" p-id="4599"></path><path d="M512 544m-40 0a40 40 0 1 0 80 0 40 40 0 1 0-80 0Z" fill="#FF4848" p-id="4600"></path><path d="M512 564c-18.4 0-33.6-12-38.4-28.8-0.8 3.2-1.6 6.4-1.6 10.4 0 21.6 17.6 39.2 40 39.2s40-17.6 40-39.2c0-3.2-0.8-7.2-1.6-10.4-4.8 16-20 28.8-38.4 28.8z" fill="#EA291C" p-id="4601"></path><path d="M512 592c-26.4 0-48-21.6-48-48s21.6-48 48-48 48 21.6 48 48-21.6 48-48 48z m0-80c-17.6 0-32 14.4-32 32s14.4 32 32 32 32-14.4 32-32-14.4-32-32-32z" fill="#223D48" p-id="4602"></path><path d="M680 544c-4 0-8-3.2-8-7.2s3.2-8 7.2-8c52.8-4 81.6-37.6 81.6-37.6 2.4-3.2 8-4 11.2-1.6 3.2 2.4 4 7.2 1.6 10.4-0.8 1.6-32.8 40-93.6 44 0.8 0 0 0 0 0zM592.8 512c-1.6 0-3.2-0.8-4-1.6-44.8-32-67.2-81.6-68-84-1.6-4 0-8.8 4-10.4 4-1.6 8 0 10.4 4 0 0.8 20.8 48 62.4 77.6 3.2 2.4 4 7.2 1.6 11.2-1.6 2.4-4 3.2-6.4 3.2zM364.8 544c-47.2 0-80-24.8-81.6-26.4-3.2-2.4-4-8-1.6-11.2 2.4-3.2 7.2-4 11.2-1.6 0.8 0 45.6 34.4 103.2 19.2 49.6-13.6 68.8-55.2 69.6-55.2 1.6-4 6.4-5.6 10.4-4 4 1.6 5.6 6.4 4 10.4-0.8 1.6-22.4 48.8-79.2 64-13.6 3.2-24.8 4.8-36 4.8zM753.6 632h-472c-4.8 0-8-3.2-8-8s3.2-8 8-8h472c4.8 0 8 3.2 8 8 0 4-3.2 8-8 8zM796 699.2c-3.2 0-6.4-2.4-7.2-5.6-1.6-8-3.2-12.8-20-12.8H356c-4.8 0-8-3.2-8-8s3.2-8 8-8H768c29.6 0 33.6 16 35.2 24.8 0.8 4-1.6 8.8-5.6 10.4-0.8-1.6-0.8-0.8-1.6-0.8zM312 680h-72c-4.8 0-8-3.2-8-8s4-8 8-8h72c4.8 0 8 3.2 8 8s-4 8-8 8zM528.8 308c-3.2 0-6.4-1.6-7.2-4.8-0.8-1.6-8.8-4-14.4-3.2-4.8 0-8-3.2-8.8-7.2 0-4.8 3.2-8 7.2-8.8 4 0 24.8-0.8 30.4 12.8 1.6 4 0 8.8-4 10.4-0.8 0.8-2.4 0.8-3.2 0.8zM824 360c-3.2 0-6.4-1.6-8-4.8-0.8-1.6-8.8-4-15.2-3.2-4.8 0-8.8-3.2-8.8-7.2s3.2-8 8-8.8c4 0 25.6-0.8 32 12.8 1.6 4 0 8.8-4 10.4-2.4 0.8-3.2 0.8-4 0.8zM528.8 544c-3.2 0-6.4-2.4-7.2-4.8 0-0.8-1.6-2.4-3.2-3.2-4.8-2.4-11.2-3.2-13.6-3.2-4 0.8-8-0.8-8.8-4.8-0.8-3.2 1.6-7.2 4.8-8 7.2-1.6 17.6 0 24.8 4.8 5.6 3.2 8.8 7.2 9.6 11.2 0.8 3.2-1.6 6.4-5.6 7.2 0 0.8 0 0.8-0.8 0.8z" fill="#FFFFFF" p-id="4603"></path><path d="M598.4 273.6c0-3.2-3.2-6.4-8-7.2l-38.4-7.2c-4-0.8-8.8-4.8-9.6-9.6l-6.4-37.6c-0.8-4-4-8-7.2-8s-6.4 3.2-7.2 8l-6.4 38.4c-0.8 4-4.8 8.8-9.6 9.6l-38.4 6.4c-4 0.8-8 4-8 7.2s3.2 6.4 8 7.2l37.6 4.8c4 0.8 8.8 4.8 9.6 8.8l7.2 40c0.8 4 4 8 7.2 8s6.4-3.2 7.2-8l7.2-40.8c0.8-4 4.8-8 9.6-8.8l37.6-4.8c4 0 8-3.2 8-6.4z" fill="#FFFFFF" p-id="4604"></path><path d="M104 584c-17.6 0-32-14.4-32-32s14.4-32 32-32 32 14.4 32 32-14.4 32-32 32z m0-48c-8.8 0-16 7.2-16 16s7.2 16 16 16 16-7.2 16-16-7.2-16-16-16zM712 240c-17.6 0-32-14.4-32-32s14.4-32 32-32 32 14.4 32 32-14.4 32-32 32z m0-48c-8.8 0-16 7.2-16 16s7.2 16 16 16 16-7.2 16-16-7.2-16-16-16zM728 864c-17.6 0-32-14.4-32-32s14.4-32 32-32 32 14.4 32 32-14.4 32-32 32z m0-48c-8.8 0-16 7.2-16 16s7.2 16 16 16 16-7.2 16-16-7.2-16-16-16zM521.6 912.8c0-3.2-3.2-6.4-8-7.2l-15.2-2.4c-4-0.8-8.8-4.8-8.8-8.8l-2.4-15.2c-0.8-4-4-8-7.2-8s-6.4 3.2-7.2 8l-2.4 15.2c-0.8 4-4.8 8.8-8.8 8.8l-15.2 2.4c-4 0.8-8 4-8 7.2s3.2 6.4 8 7.2l15.2 2.4c4 0.8 8.8 4.8 8.8 8.8l2.4 15.2c0.8 4 4 8 7.2 8s6.4-3.2 6.4-8l2.4-16.8c0.8-4 4.8-8 8.8-8.8l14.4-0.8c6.4-1.6 9.6-4 9.6-7.2zM318.4 204.8c0-3.2-3.2-6.4-8-7.2l-15.2-2.4c-4-0.8-8.8-4.8-8.8-8.8l-2.4-15.2c-0.8-4-4-8-7.2-8s-6.4 3.2-7.2 8l-2.4 15.2c-0.8 4-4.8 8.8-8.8 8.8l-15.2 2.4c-4 0.8-8 4-8 7.2s3.2 6.4 8 7.2l15.2 2.4c4 0.8 8.8 4.8 8.8 8.8l2.4 15.2c0.8 4 4 8 7.2 8s6.4-3.2 6.4-8l2.4-16.8c0.8-4 4.8-8 8.8-8.8l14.4-0.8c5.6-1.6 9.6-4 9.6-7.2z" fill="#FFFFFF" opacity=".5" p-id="4605"></path><path d="M224 359.2m-38.4 0a38.4 38.4 0 1 0 76.8 0 38.4 38.4 0 1 0-76.8 0Z" fill="#FBD000" p-id="4606"></path><path d="M224 368.8c-16.8 0-31.2-10.4-36.8-24.8-2.4 4.8-3.2 10.4-3.2 16 0 22.4 17.6 40 40 40s40-18.4 40-40c0-5.6-0.8-11.2-3.2-16-5.6 14.4-20 24.8-36.8 24.8z" fill="#F4B10B" p-id="4607"></path><path d="M224 408c-26.4 0-48-21.6-48-48s21.6-48 48-48 48 21.6 48 48-21.6 48-48 48z m0-80c-17.6 0-32 14.4-32 32s14.4 32 32 32 32-14.4 32-32-14.4-32-32-32z" fill="#223D48" p-id="4608"></path><path d="M240 360c-3.2 0-6.4-1.6-8-4.8-0.8-1.6-8.8-4-15.2-3.2-4.8 0-8.8-3.2-8.8-7.2s3.2-8 8-8.8c4 0 25.6-0.8 32 12.8 1.6 4 0 8.8-4 10.4-2.4 0.8-3.2 0.8-4 0.8z" fill="#FFFFFF" p-id="4609"></path></svg>